#N canvas -4 -4 1920 998 10;
#N canvas -8 -8 1600 817 midi_clock_stuff 0;
#X obj 55 85 midirealtimein;
#X obj 55 128 sel 248 250 251 525;
#X obj 55 175 f;
#X obj 81 175 + 1;
#X msg 82 151 0;
#X obj 454 880 r count_start;
#X obj 367 903 +, f 15;
#X obj 472 722 r count_range;
#X obj 451 802 abs;
#X obj 367 856 spigot;
#X obj 451 854 spigot;
#X obj 484 809 r count_direction;
#X obj 400 836 == 0;
#X obj 367 702 pipe;
#X msg 829 45 0 1 2 3 4 5 6 5 4 3 2 1;
#X msg 876 64 0;
#X obj 829 83 array set swinger;
#X obj 830 102 array define -k -yrange 0 6 swinger 12;
#A 0 0 1 2 3 4 5 6 5 4 3 2 1;
#X obj 477 614 *;
#X obj 477 635 *, f 6;
#X text 575 762 Range & Direction;
#X text 113 149 kleinstes gemeinsame Vielfaches von 32 Steps;
#X obj 367 327 / 6;
#X obj 367 348 int;
#X obj 367 369 change;
#X text 562 151 offset;
#X obj 55 219 + 0, f 73;
#X text 423 347 only 16th notes;
#X obj 492 592 / 2;
#X obj 477 418 % 2;
#X text 113 161 kleinstes gemeinsames Vielfaches 1444 355 2893 600
;
#X obj 81 195 sel 1.44404e+014;
#X obj 367 944 send miditimecode;
#X text 1167 72 6 pulses pro step;
#X text 1163 91 32 steps = 192 pulses;
#X text 1156 113 12 pulses pro 8tel (swing einheit);
#X text 1166 54 24 ppq;
#X obj 493 178 hsl 128 15 -6 6 0 0 empty empty empty -2 -8 0 10 -262144
-1 -1 6350 1;
#X floatatom 490 198 5 0 0 0 - - -;
#X obj 490 137 loadbang;
#X msg 490 158 0;
#X obj 961 880 r count_start;
#X obj 874 903 +, f 15;
#X obj 979 722 r count_range;
#X obj 958 802 abs;
#X obj 874 856 spigot;
#X obj 958 854 spigot;
#X obj 991 809 r count_direction;
#X obj 907 836 == 0;
#X obj 1099 419 t b b;
#X obj 874 702 pipe;
#X obj 874 397 t f f f, f 38;
#X text 1082 762 Range & Direction;
#X obj 874 327 / 6;
#X obj 874 348 int;
#X obj 874 369 change;
#X text 930 347 only 16th notes;
#X obj 984 418 % 2;
#X obj 958 782 - 31;
#X obj 874 944 send miditimecode_vorgezogen;
#X obj 874 302 + 3;
#X obj 510 614 r swing;
#X floatatom 226 196 25 0 0 0 - - -;
#X obj 1099 604 s step_length;
#X obj 1099 439 timer;
#X obj 1238 453 f;
#X obj 1276 453 + 1;
#X obj 1099 460 t b f b, f 12;
#X obj 1099 502 array sum steptime;
#X obj 1133 481 tabwrite steptime;
#X obj 367 397 t f f, f 19;
#X obj 984 614 *;
#X obj 984 635 *, f 6;
#X obj 999 592 / 2;
#X obj 1017 614 r swing;
#X obj 999 572 r step_length;
#X obj 492 572 r step_length;
#X obj 1248 512 array define -yrange 0 250 steptime 8;
#X obj 1276 479 mod 8;
#X obj 1099 522 / 8;
#X obj 1099 542 + 0.499999;
#X obj 1099 563 int;
#X obj 1099 584 change;
#X text 1188 564 Median of steplength in ms;
#X obj 874 750 % 32;
#X obj 367 750 % 32;
#X obj 451 782 - 31;
#X obj 451 823 - 1;
#X obj 958 823 - 1;
#X obj 1185 308 s count_start;
#X obj 1280 308 s count_range;
#X obj 1375 308 s count_direction;
#X obj 1185 280 inlet;
#X obj 1280 280 inlet;
#X obj 1375 279 inlet;
#X obj 55 240 t f f f, f 141;
#X obj 55 261 / 24;
#X obj 55 282 int;
#X obj 55 303 change;
#X obj 55 324 mod 4;
#X obj 55 477 ctlout 1;
#X obj 55 345 t b f, f 14;
#X obj 55 387 t f f;
#X msg 55 366 0 \, 1 \, 2 \, 3;
#X obj 55 413 ==, f 14;
#X obj 82 438 + 40;
#X connect 0 0 1 0;
#X connect 1 0 2 0;
#X connect 1 1 4 0;
#X connect 2 0 3 0;
#X connect 2 0 26 0;
#X connect 2 0 62 0;
#X connect 3 0 2 1;
#X connect 3 0 31 0;
#X connect 4 0 2 1;
#X connect 5 0 6 1;
#X connect 6 0 32 0;
#X connect 7 0 85 1;
#X connect 7 0 86 1;
#X connect 8 0 87 0;
#X connect 9 0 6 0;
#X connect 10 0 6 0;
#X connect 11 0 12 0;
#X connect 11 0 10 1;
#X connect 12 0 9 1;
#X connect 13 0 85 0;
#X connect 14 0 16 0;
#X connect 15 0 16 1;
#X connect 18 0 19 0;
#X connect 19 0 13 1;
#X connect 22 0 23 0;
#X connect 23 0 24 0;
#X connect 24 0 70 0;
#X connect 26 0 95 0;
#X connect 28 0 18 1;
#X connect 29 0 18 0;
#X connect 31 0 4 0;
#X connect 37 0 38 0;
#X connect 38 0 26 1;
#X connect 39 0 40 0;
#X connect 40 0 37 0;
#X connect 41 0 42 1;
#X connect 42 0 59 0;
#X connect 43 0 58 1;
#X connect 43 0 84 1;
#X connect 44 0 88 0;
#X connect 45 0 42 0;
#X connect 46 0 42 0;
#X connect 47 0 48 0;
#X connect 47 0 46 1;
#X connect 48 0 45 1;
#X connect 49 0 64 0;
#X connect 49 1 64 1;
#X connect 50 0 84 0;
#X connect 51 0 50 0;
#X connect 51 1 57 0;
#X connect 51 2 49 0;
#X connect 53 0 54 0;
#X connect 54 0 55 0;
#X connect 55 0 51 0;
#X connect 57 0 71 0;
#X connect 58 0 44 0;
#X connect 60 0 53 0;
#X connect 61 0 19 1;
#X connect 64 0 67 0;
#X connect 65 0 66 0;
#X connect 65 0 69 1;
#X connect 66 0 78 0;
#X connect 67 0 68 0;
#X connect 67 1 69 0;
#X connect 67 2 65 0;
#X connect 68 0 79 0;
#X connect 70 0 13 0;
#X connect 70 1 29 0;
#X connect 71 0 72 0;
#X connect 72 0 50 1;
#X connect 73 0 71 1;
#X connect 74 0 72 1;
#X connect 75 0 73 0;
#X connect 76 0 28 0;
#X connect 78 0 65 1;
#X connect 79 0 80 0;
#X connect 80 0 81 0;
#X connect 81 0 82 0;
#X connect 82 0 63 0;
#X connect 84 0 45 0;
#X connect 84 0 58 0;
#X connect 85 0 9 0;
#X connect 85 0 86 0;
#X connect 86 0 8 0;
#X connect 87 0 10 0;
#X connect 88 0 46 0;
#X connect 92 0 89 0;
#X connect 93 0 90 0;
#X connect 94 0 91 0;
#X connect 95 0 96 0;
#X connect 95 1 22 0;
#X connect 95 2 60 0;
#X connect 96 0 97 0;
#X connect 97 0 98 0;
#X connect 98 0 99 0;
#X connect 99 0 101 0;
#X connect 101 0 103 0;
#X connect 101 1 104 1;
#X connect 102 0 104 0;
#X connect 102 1 105 0;
#X connect 103 0 102 0;
#X connect 104 0 100 0;
#X connect 105 0 100 1;
#X restore 773 468 pd midi_clock_stuff;
#N canvas -8 -8 1600 817 set_steps_manualy 0;
#X obj 402 118 inlet;
#X obj 915 78 text set sequence;
#X obj 915 98 text define -k sequence;
#A set 0 -1 -1 11 0 -1 \; 0 -1 -1 11 0 -1 \; 0 -1 -1 11 0 -1 \; 0 -1
-1 11 0 -1 \; 0 -1 -1 11 0 -1 \; 0 -1 -1 11 0 -1 \; 0 -1 -1 11 0 -1
\; 0 -1 -1 11 0 -1 \; 0 -1 -1 11 0 -1 \; 0 -1 -1 11 0 -1 \; 0 -1 -1
11 0 -1 \; 0 -1 -1 11 0 -1 \; 0 -1 -1 11 0 -1 \; 0 -1 -1 11 0 -1 \;
0 -1 -1 11 0 -1 \; 0 -1 -1 11 0 -1 \; 0 -1 -1 11 0 -1 \; 0 -1 -1 11
0 -1 \; 0 -1 -1 11 0 -1 \; 0 -1 -1 11 0 -1 \; 0 -1 -1 11 0 -1 \; 0
-1 -1 11 0 -1 \; 0 -1 -1 11 0 -1 \; 0 -1 -1 11 0 -1 \; 0 -1 -1 11 0
-1 \; 0 -1 -1 11 0 -1 \; 0 -1 -1 11 0 -1 \; 0 -1 -1 11 0 -1 \; 0 -1
-1 11 0 -1 \; 0 -1 -1 11 0 -1 \; 0 -1 -1 11 0 -1 \; 0 -1 -1 11 0 -1
\;;
#X msg 1014 57 1e+015;
#X text 338 73 0;
#X text 398 73 -1;
#X text 458 73 -1;
#X text 638 73 1;
#X text 688 73 -1;
#X text 338 54 active / length / velocity / trigger-condition / flam
/ pitches, f 78;
#X text 558 73 11;
#X obj 573 169 t l l, f 21;
#X obj 702 769 s LED_num_hue_bright_(Step-Velues);
#X text 388 257 Show Step Values when held;
#X msg 915 57 0 -1 -1 11 0 -1;
#X obj 573 276 list split 5, f 87;
#X obj 573 347 unpack f f f f f, f 87;
#X obj 702 392 sel -1;
#X obj 733 413 / 8;
#X obj 733 434 int;
#X obj 733 455 + 1;
#X msg 702 413 0;
#X obj 1170 495 != 0;
#X obj 1170 516 sel 1;
#X msg 1170 537 32;
#X obj 1170 559 until;
#X obj 1170 587 f;
#X obj 1208 587 + 1;
#X obj 1208 613 mod 32;
#X obj 1233 587 sel 0;
#X msg 1170 658 \$1 0 -127;
#X obj 702 473 f;
#X obj 573 219 route, f 21;
#X obj 696 197 unpack f f, f 75;
#X obj 702 494 change;
#X obj 702 514 t b f, f 18;
#X obj 702 554 until;
#X obj 702 582 f;
#X obj 740 582 + 1;
#X obj 765 582 sel 0;
#X obj 702 603 t f f;
#X obj 729 647 sel 0 1;
#X obj 702 711 pack f 0 f;
#X msg 759 668 -127;
#X msg 729 668 -4;
#X obj 729 626 >=, f 13;
#X obj 832 392 sel -1;
#X obj 863 413 / 8;
#X obj 863 434 int;
#X obj 863 455 + 1;
#X msg 832 413 0;
#X obj 832 473 f;
#X obj 832 494 change;
#X obj 832 514 t b f, f 18;
#X obj 832 554 until;
#X obj 832 582 f;
#X obj 870 582 + 1;
#X obj 895 582 sel 0;
#X obj 832 603 t f f;
#X obj 859 647 sel 0 1;
#X msg 889 668 -127;
#X msg 859 668 -4;
#X obj 859 626 >=, f 13;
#X obj 832 689 + 16;
#X obj 740 603 mod 16;
#X obj 870 603 mod 16;
#X msg 832 532 16;
#X msg 702 532 16;
#X obj 832 711 pack f 222 f;
#X obj 1143 325 t f f;
#X msg 1143 466 -1;
#X obj 962 389 % 10;
#X obj 962 769 s LED_TCondition_(Step-Velues);
#X obj 1092 729 s LED_Flam_(Step-Velues);
#X obj 832 312 s held_step_pitches;
#X obj 402 139 t l l, f 29;
#X msg 402 160 \$2;
#X obj 402 181 sel 0;
#X obj 402 222 s reset_keyboard_colours;
#X obj 573 198 clone set_step2 32;
#X obj 280 233 ctlout 52 1;
#X msg 289 202 0;
#X connect 0 0 75 0;
#X connect 3 0 1 1;
#X connect 11 0 79 0;
#X connect 11 1 33 0;
#X connect 14 0 1 0;
#X connect 15 0 16 0;
#X connect 15 1 74 0;
#X connect 16 1 17 0;
#X connect 16 2 46 0;
#X connect 16 3 71 0;
#X connect 16 4 73 0;
#X connect 17 0 21 0;
#X connect 17 1 18 0;
#X connect 18 0 19 0;
#X connect 19 0 20 0;
#X connect 20 0 31 0;
#X connect 21 0 31 0;
#X connect 22 0 23 0;
#X connect 23 0 24 0;
#X connect 24 0 25 0;
#X connect 25 0 26 0;
#X connect 26 0 27 0;
#X connect 26 0 30 0;
#X connect 27 0 28 0;
#X connect 28 0 26 1;
#X connect 28 0 29 0;
#X connect 29 0 25 1;
#X connect 30 0 12 0;
#X connect 31 0 34 0;
#X connect 32 0 15 0;
#X connect 33 0 32 1;
#X connect 33 1 69 0;
#X connect 34 0 35 0;
#X connect 35 0 67 0;
#X connect 35 1 45 1;
#X connect 36 0 37 0;
#X connect 37 0 38 0;
#X connect 37 0 40 0;
#X connect 38 0 64 0;
#X connect 39 0 36 1;
#X connect 40 0 42 0;
#X connect 40 1 45 0;
#X connect 41 0 44 0;
#X connect 41 1 43 0;
#X connect 42 0 12 0;
#X connect 43 0 42 2;
#X connect 44 0 42 2;
#X connect 45 0 41 0;
#X connect 46 0 50 0;
#X connect 46 1 47 0;
#X connect 47 0 48 0;
#X connect 48 0 49 0;
#X connect 49 0 51 0;
#X connect 50 0 51 0;
#X connect 51 0 52 0;
#X connect 52 0 53 0;
#X connect 53 0 66 0;
#X connect 53 1 62 1;
#X connect 54 0 55 0;
#X connect 55 0 56 0;
#X connect 55 0 58 0;
#X connect 56 0 65 0;
#X connect 57 0 54 1;
#X connect 58 0 63 0;
#X connect 58 1 62 0;
#X connect 59 0 61 0;
#X connect 59 1 60 0;
#X connect 60 0 68 2;
#X connect 61 0 68 2;
#X connect 62 0 59 0;
#X connect 63 0 68 0;
#X connect 64 0 37 1;
#X connect 64 0 39 0;
#X connect 65 0 55 1;
#X connect 65 0 57 0;
#X connect 66 0 54 0;
#X connect 67 0 36 0;
#X connect 68 0 12 0;
#X connect 69 0 70 0;
#X connect 69 1 22 0;
#X connect 70 0 34 0;
#X connect 70 0 52 0;
#X connect 71 0 72 0;
#X connect 75 0 76 0;
#X connect 75 1 11 0;
#X connect 76 0 77 0;
#X connect 77 0 78 0;
#X connect 77 0 81 0;
#X connect 79 0 32 0;
#X connect 81 0 80 0;
#X restore 624 471 pd set_steps_manualy;
#N canvas -8 -8 1600 817 lfo 0;
#X obj 28 72 spigot 1;
#X obj 1545 799 notein 1;
#X obj 1545 820 pack f f;
#X obj 1545 901 route 16 17 18 19;
#X obj 28 92 t f f, f 8;
#X obj 28 111 > 63;
#X obj 28 131 pack f f;
#X obj 28 152 route 0 1;
#X obj 53 177 - 128;
#X obj 28 209 +;
#X obj 718 691 s lfo_spigot;
#X obj 73 53 r lfo_spigot;
#X obj 198 72 spigot 1;
#X obj 243 53 r lfo_spigot;
#X obj 868 72 spigot 1;
#X obj 868 92 t f f, f 8;
#X obj 868 111 > 63;
#X obj 868 131 pack f f;
#X obj 868 152 route 0 1;
#X obj 893 177 - 128;
#X obj 868 209 +;
#X obj 913 53 r lfo_spigot;
#X obj 1038 72 spigot 1;
#X obj 1038 152 t f f, f 8;
#X obj 1038 171 > 63;
#X obj 1038 191 pack f f;
#X obj 1038 212 route 0 1;
#X obj 1063 237 - 128;
#X obj 1038 269 +;
#X obj 1038 290 clip 0 127;
#X obj 1083 53 r lfo_spigot;
#X obj 1545 866 spigot 1;
#X obj 1590 847 r lfo_spigot;
#X obj 134 898 phasor~;
#X obj 447 1186 snapshot~;
#X obj 134 938 abs~;
#X obj 134 919 -~ 0.5;
#X obj 134 959 -~ 0.25;
#X obj 134 979 *~ 4;
#X obj 115 1085 tabwrite~ lfo1;
#X obj 447 1110 bng 50 250 50 0 empty empty empty 17 7 0 10 -262144
-1 -1;
#X obj 134 876 sig~;
#X msg 173 876 0;
#X obj 110 1332 array get lfo1;
#X obj 83 1216 until;
#X msg 83 1193 32;
#X obj 83 1242 f;
#X obj 150 1232 + 1;
#X obj 150 1258 mod 32;
#X obj 150 1290 loadbang;
#X obj 362 898 phasor~;
#X obj 362 938 abs~;
#X obj 362 919 -~ 0.5;
#X obj 362 959 -~ 0.25;
#X obj 362 979 *~ 4;
#X obj 362 876 sig~;
#X obj 134 823 * 21337.7;
#X obj 134 844 + 711.3;
#X obj 377 669 r step_length;
#X obj 362 844 +;
#X obj 362 823 *;
#X obj 422 729 t b f;
#X msg 422 750 1000;
#X obj 422 771 /;
#X obj 377 730 t b f;
#X msg 377 751 1000;
#X obj 377 772 /;
#X obj 377 690 t f f, f 8;
#X obj 422 792 t f f;
#X obj 377 796 -;
#X obj 422 709 * 2;
#X obj 377 709 * 64;
#X obj 83 796 t b b b f f, f 22;
#X obj 146 1115 array define lfo1 32;
#X obj 1031 1569 bng 50 250 50 0 empty empty empty 17 7 0 10 -262144
-1 -1;
#X obj 83 1289 t f f;
#X obj 83 1490 pack f f;
#X obj 110 1397 + 0.499999;
#X obj 110 1418 int;
#X obj 28 230 clip 0 256;
#X obj 28 251 / 256;
#X obj 28 24 ctlin 16 1;
#X obj 198 24 ctlin 17 1;
#X obj 868 24 ctlin 18 1;
#X obj 1038 24 ctlin 19 1;
#X obj 28 463 t b f b, f 19;
#X msg 139 487 0;
#X obj 28 487 delay 50;
#X obj 28 532 s speedlim_lfo;
#X obj 95 424 r speedlim_lfo;
#X obj 198 463 t b f b, f 19;
#X msg 309 487 0;
#X obj 198 487 delay 50;
#X obj 198 532 s speedlim_lfo;
#X obj 868 463 t b f b, f 19;
#X msg 979 487 0;
#X obj 868 487 delay 50;
#X obj 868 532 s speedlim_lfo;
#X obj 935 424 r speedlim_lfo;
#X obj 1038 463 t b f b, f 19;
#X msg 1149 487 0;
#X obj 1038 487 delay 50;
#X obj 1038 532 s speedlim_lfo;
#X obj 1105 424 r speedlim_lfo;
#X floatatom 702 465 5 0 0 0 - - -;
#X obj 702 423 loadbang;
#X text 739 443 Speedlim Time;
#X obj 28 445 spigot 1, f 12;
#X obj 868 445 spigot 1, f 12;
#X obj 1038 445 spigot 1, f 12;
#X msg 28 448 1;
#X msg 198 508 1;
#X msg 868 508 1;
#X msg 1038 508 1;
#X obj 83 771 f;
#X obj 134 1001 *~, f 23;
#X obj 136 1046 clip~ -1 1;
#X obj 253 697 t b f f;
#X obj 292 726 * -1;
#X obj 135 1023 +~, f 27;
#X obj 363 1001 *~, f 23;
#X obj 365 1046 clip~ -1 1;
#X obj 364 1023 +~, f 27;
#X obj 292 768 t f f;
#X obj 272 788 t f f;
#X obj 974 898 phasor~;
#X obj 1287 1186 snapshot~;
#X obj 974 938 abs~;
#X obj 974 919 -~ 0.5;
#X obj 974 959 -~ 0.25;
#X obj 974 979 *~ 4;
#X obj 1287 1110 bng 50 250 50 0 empty empty empty 17 7 0 10 -262144
-1 -1;
#X obj 974 876 sig~;
#X msg 1013 876 0;
#X obj 923 1214 until;
#X msg 923 1191 32;
#X obj 923 1240 f;
#X obj 990 1230 + 1;
#X obj 990 1256 mod 32;
#X obj 990 1288 loadbang;
#X msg 990 1309 1;
#X obj 1202 898 phasor~;
#X obj 1202 938 abs~;
#X obj 1202 919 -~ 0.5;
#X obj 1202 959 -~ 0.25;
#X obj 1202 979 *~ 4;
#X obj 1202 876 sig~;
#X obj 974 823 * 21337.7;
#X obj 974 844 + 711.3;
#X obj 1217 669 r step_length;
#X obj 1202 844 +;
#X obj 1202 823 *;
#X obj 1262 729 t b f;
#X msg 1262 750 1000;
#X obj 1262 771 /;
#X obj 1217 730 t b f;
#X msg 1217 751 1000;
#X obj 1217 772 /;
#X obj 1217 690 t f f, f 8;
#X obj 1262 792 t f f;
#X obj 1217 796 -;
#X obj 1262 709 * 2;
#X obj 1217 709 * 64;
#X obj 923 796 t b b b f f, f 22;
#X obj 923 1287 t f f;
#X obj 923 1468 pack f f;
#X obj 950 1395 + 0.499999;
#X obj 950 1416 int;
#X obj 923 771 f;
#X obj 1093 646 / 32;
#X obj 974 1001 *~, f 23;
#X obj 976 1046 clip~ -1 1;
#X obj 1093 697 t b f f;
#X obj 1132 726 * -1;
#X obj 975 1023 +~, f 27;
#X obj 1203 1001 *~, f 23;
#X obj 1205 1046 clip~ -1 1;
#X obj 1204 1023 +~, f 27;
#X obj 1132 768 t f f;
#X obj 1112 788 t f f;
#X obj 868 230 clip 0 256;
#X obj 868 251 / 256;
#X obj 955 1085 tabwrite~ lfo2;
#X obj 986 1115 array define lfo2 32;
#X obj 950 1330 array get lfo2;
#X msg 401 875 0;
#X floatatom 457 690 5 0 0 0 - - -;
#X msg 150 1311 1;
#X obj 110 1373 * 127;
#X obj 110 1446 clip -120 32;
#X obj 950 1444 clip -120 32;
#X obj 950 1371 * 127;
#X msg 83 1514 \$1 0 \$2;
#X msg 923 1512 \$1 222 \$2;
#X obj 1569 975 t b f;
#X obj 1545 996 +, f 9;
#X obj 1545 1017 != 0;
#X obj 1545 1038 change;
#X obj 1649 975 t b f;
#X obj 1625 996 +, f 9;
#X obj 1625 1017 != 0;
#X obj 1625 1038 change;
#X obj 83 1560 s LED_num_hue_bright_(LFO);
#X obj 1545 1059 sel 1;
#X obj 1625 1059 sel 1;
#X obj 510 1149 r get_velocity;
#X obj 1355 1143 r get_length;
#X obj 447 1207 s got_velocity;
#X obj 1287 1207 s got_length;
#X obj 1038 311 - 127;
#X obj 1038 332 * -1;
#X obj 718 640 r upper_mode;
#X msg 702 444 50;
#X obj 774 11 notein 1;
#X obj 774 32 pack f f;
#X obj 774 53 route 31 32;
#X obj 198 93 t f f f, f 80;
#X obj 436 119 spigot;
#X obj 675 119 spigot;
#X obj 198 114 spigot 1;
#X obj 774 78 t b f;
#X obj 774 99 +;
#X obj 774 120 == 0;
#X msg 547 487 0;
#X obj 436 487 delay 50;
#X obj 436 532 s speedlim_lfo;
#X msg 436 508 1;
#X obj 198 152 t f f, f 8;
#X obj 198 171 > 63;
#X obj 198 191 pack f f;
#X obj 198 212 route 0 1;
#X obj 223 237 - 128;
#X obj 198 269 +;
#X obj 198 290 clip 0 127;
#X obj 198 311 - 127;
#X obj 198 332 * -1;
#X obj 436 152 t f f, f 8;
#X obj 436 171 > 63;
#X obj 436 191 pack f f;
#X obj 436 212 route 0 1;
#X obj 461 237 - 128;
#X obj 436 269 +;
#X obj 436 290 clip 0 127;
#X obj 675 152 t f f, f 8;
#X obj 675 171 > 63;
#X obj 675 191 pack f f;
#X obj 675 212 route 0 1;
#X obj 700 237 - 128;
#X obj 675 269 +;
#X obj 675 290 clip 0 127;
#X obj 265 424 r speedlim_lfo;
#X obj 198 445 spigot 1, f 12;
#X obj 503 424 r speedlim_lfo;
#X obj 436 445 spigot 1, f 12;
#X obj 491 594 t b f f;
#X obj 548 594 t b f f;
#X obj 436 311 / 63.5;
#X obj 436 332 - 1;
#X obj 675 311 / 63.5;
#X obj 675 332 - 1;
#X obj 436 374 pack f f, f 45;
#X obj 675 352 t b f;
#X obj 491 567 unpack f f;
#X obj 436 463 t b l b, f 19;
#X floatatom 242 768 5 0 0 0 - - -;
#X obj 292 747 + 1;
#X obj 253 646 / 32;
#X floatatom 228 744 5 0 0 0 - - -;
#X obj 253 667 + 1;
#X obj 1132 747 + 1;
#X obj 1093 667 + 1;
#X obj 1038 93 t f f f, f 80;
#X obj 1276 119 spigot;
#X obj 1515 119 spigot;
#X obj 1276 152 t f f, f 8;
#X obj 1276 171 > 63;
#X obj 1276 191 pack f f;
#X obj 1276 212 route 0 1;
#X obj 1301 237 - 128;
#X obj 1276 269 +;
#X obj 1276 290 clip 0 127;
#X obj 1515 152 t f f, f 8;
#X obj 1515 171 > 63;
#X obj 1515 191 pack f f;
#X obj 1515 212 route 0 1;
#X obj 1540 237 - 128;
#X obj 1515 269 +;
#X obj 1515 290 clip 0 127;
#X obj 1276 311 / 63.5;
#X obj 1276 332 - 1;
#X obj 1515 311 / 63.5;
#X obj 1515 332 - 1;
#X obj 1276 374 pack f f, f 45;
#X obj 1515 352 t b f;
#X obj 1038 114 spigot 1;
#X msg 1387 487 0;
#X obj 1276 487 delay 50;
#X obj 1276 532 s speedlim_lfo;
#X msg 1276 508 1;
#X obj 1343 424 r speedlim_lfo;
#X obj 1276 445 spigot 1, f 12;
#X obj 1331 594 t b f f;
#X obj 1388 594 t b f f;
#X obj 1331 567 unpack f f;
#X obj 1276 463 t b l b, f 19;
#X obj 718 661 != 2;
#X connect 0 0 4 0;
#X connect 1 0 2 0;
#X connect 1 1 2 1;
#X connect 2 0 31 0;
#X connect 3 0 195 0;
#X connect 3 1 194 0;
#X connect 3 2 199 0;
#X connect 3 3 198 0;
#X connect 4 0 5 0;
#X connect 4 1 6 1;
#X connect 5 0 6 0;
#X connect 6 0 7 0;
#X connect 7 0 9 0;
#X connect 7 1 8 0;
#X connect 8 0 9 0;
#X connect 9 0 79 0;
#X connect 11 0 0 1;
#X connect 12 0 216 0;
#X connect 13 0 12 1;
#X connect 14 0 15 0;
#X connect 15 0 16 0;
#X connect 15 1 17 1;
#X connect 16 0 17 0;
#X connect 17 0 18 0;
#X connect 18 0 20 0;
#X connect 18 1 19 0;
#X connect 19 0 20 0;
#X connect 20 0 180 0;
#X connect 21 0 14 1;
#X connect 22 0 271 0;
#X connect 23 0 24 0;
#X connect 23 1 25 1;
#X connect 24 0 25 0;
#X connect 25 0 26 0;
#X connect 26 0 28 0;
#X connect 26 1 27 0;
#X connect 27 0 28 0;
#X connect 28 0 29 0;
#X connect 29 0 28 1;
#X connect 29 0 209 0;
#X connect 30 0 22 1;
#X connect 31 0 3 0;
#X connect 32 0 31 1;
#X connect 33 0 36 0;
#X connect 34 0 207 0;
#X connect 35 0 37 0;
#X connect 36 0 35 0;
#X connect 37 0 38 0;
#X connect 38 0 115 0;
#X connect 40 0 34 0;
#X connect 41 0 33 0;
#X connect 42 0 33 1;
#X connect 43 0 188 0;
#X connect 44 0 46 0;
#X connect 45 0 44 0;
#X connect 46 0 47 0;
#X connect 46 0 75 0;
#X connect 47 0 48 0;
#X connect 48 0 46 1;
#X connect 49 0 187 0;
#X connect 50 0 52 0;
#X connect 51 0 53 0;
#X connect 52 0 51 0;
#X connect 53 0 54 0;
#X connect 54 0 120 0;
#X connect 55 0 50 0;
#X connect 56 0 57 0;
#X connect 57 0 41 0;
#X connect 58 0 67 0;
#X connect 58 0 186 0;
#X connect 59 0 55 0;
#X connect 60 0 59 0;
#X connect 61 0 62 0;
#X connect 61 1 63 1;
#X connect 62 0 63 0;
#X connect 63 0 68 0;
#X connect 64 0 65 0;
#X connect 64 1 66 1;
#X connect 65 0 66 0;
#X connect 66 0 69 0;
#X connect 67 0 71 0;
#X connect 67 1 70 0;
#X connect 68 0 69 1;
#X connect 68 1 59 1;
#X connect 69 0 60 1;
#X connect 70 0 61 0;
#X connect 71 0 64 0;
#X connect 72 0 45 0;
#X connect 72 1 39 0;
#X connect 72 2 42 0;
#X connect 72 2 185 0;
#X connect 72 3 56 0;
#X connect 72 4 60 0;
#X connect 75 0 76 0;
#X connect 75 1 43 0;
#X connect 76 0 192 0;
#X connect 77 0 78 0;
#X connect 78 0 189 0;
#X connect 79 0 9 1;
#X connect 79 0 80 0;
#X connect 80 0 107 0;
#X connect 81 0 0 0;
#X connect 82 0 12 0;
#X connect 83 0 14 0;
#X connect 84 0 22 0;
#X connect 85 0 87 0;
#X connect 85 1 114 0;
#X connect 85 2 86 0;
#X connect 86 0 88 0;
#X connect 87 0 110 0;
#X connect 89 0 107 1;
#X connect 90 0 92 0;
#X connect 90 1 266 0;
#X connect 90 2 91 0;
#X connect 91 0 93 0;
#X connect 92 0 111 0;
#X connect 94 0 96 0;
#X connect 94 1 168 0;
#X connect 94 2 95 0;
#X connect 95 0 97 0;
#X connect 96 0 112 0;
#X connect 98 0 108 1;
#X connect 99 0 101 0;
#X connect 99 1 169 0;
#X connect 99 2 100 0;
#X connect 100 0 102 0;
#X connect 101 0 113 0;
#X connect 103 0 109 1;
#X connect 104 0 101 1;
#X connect 104 0 96 1;
#X connect 104 0 92 1;
#X connect 104 0 87 1;
#X connect 104 0 224 1;
#X connect 104 0 296 1;
#X connect 105 0 212 0;
#X connect 107 0 85 0;
#X connect 108 0 94 0;
#X connect 109 0 99 0;
#X connect 110 0 88 0;
#X connect 111 0 93 0;
#X connect 112 0 97 0;
#X connect 113 0 102 0;
#X connect 114 0 72 0;
#X connect 115 0 119 0;
#X connect 116 0 39 0;
#X connect 117 0 114 0;
#X connect 117 1 124 0;
#X connect 117 1 267 0;
#X connect 117 2 118 0;
#X connect 118 0 265 0;
#X connect 119 0 116 0;
#X connect 120 0 122 0;
#X connect 121 0 34 0;
#X connect 122 0 121 0;
#X connect 123 0 119 1;
#X connect 123 1 122 1;
#X connect 124 0 115 1;
#X connect 124 1 120 1;
#X connect 125 0 128 0;
#X connect 126 0 208 0;
#X connect 127 0 129 0;
#X connect 128 0 127 0;
#X connect 129 0 130 0;
#X connect 130 0 170 0;
#X connect 131 0 126 0;
#X connect 132 0 125 0;
#X connect 133 0 125 1;
#X connect 134 0 136 0;
#X connect 135 0 134 0;
#X connect 136 0 137 0;
#X connect 136 0 164 0;
#X connect 137 0 138 0;
#X connect 138 0 136 1;
#X connect 139 0 140 0;
#X connect 140 0 184 1;
#X connect 141 0 143 0;
#X connect 142 0 144 0;
#X connect 143 0 142 0;
#X connect 144 0 145 0;
#X connect 145 0 175 0;
#X connect 146 0 141 0;
#X connect 147 0 148 0;
#X connect 148 0 132 0;
#X connect 149 0 158 0;
#X connect 150 0 146 0;
#X connect 151 0 150 0;
#X connect 152 0 153 0;
#X connect 152 1 154 1;
#X connect 153 0 154 0;
#X connect 154 0 159 0;
#X connect 155 0 156 0;
#X connect 155 1 157 1;
#X connect 156 0 157 0;
#X connect 157 0 160 0;
#X connect 158 0 162 0;
#X connect 158 1 161 0;
#X connect 159 0 160 1;
#X connect 159 1 150 1;
#X connect 160 0 151 1;
#X connect 161 0 152 0;
#X connect 162 0 155 0;
#X connect 163 0 135 0;
#X connect 163 1 182 0;
#X connect 163 2 133 0;
#X connect 163 3 147 0;
#X connect 163 4 151 0;
#X connect 164 0 165 0;
#X connect 164 1 184 0;
#X connect 165 0 193 0;
#X connect 166 0 167 0;
#X connect 167 0 190 0;
#X connect 168 0 163 0;
#X connect 169 0 270 0;
#X connect 170 0 174 0;
#X connect 171 0 182 0;
#X connect 172 0 168 0;
#X connect 172 1 179 0;
#X connect 172 2 173 0;
#X connect 173 0 269 0;
#X connect 174 0 171 0;
#X connect 175 0 177 0;
#X connect 176 0 126 0;
#X connect 177 0 176 0;
#X connect 178 0 174 1;
#X connect 178 1 177 1;
#X connect 179 0 170 1;
#X connect 179 1 175 1;
#X connect 180 0 20 1;
#X connect 180 0 181 0;
#X connect 181 0 108 0;
#X connect 184 0 191 0;
#X connect 185 0 50 1;
#X connect 187 0 43 1;
#X connect 188 0 77 0;
#X connect 189 0 76 1;
#X connect 190 0 165 1;
#X connect 191 0 166 0;
#X connect 192 0 202 0;
#X connect 193 0 202 0;
#X connect 194 0 195 0;
#X connect 194 1 195 1;
#X connect 195 0 196 0;
#X connect 196 0 197 0;
#X connect 197 0 203 0;
#X connect 198 0 199 0;
#X connect 198 1 199 1;
#X connect 199 0 200 0;
#X connect 200 0 201 0;
#X connect 201 0 204 0;
#X connect 203 0 45 0;
#X connect 204 0 135 0;
#X connect 205 0 34 0;
#X connect 206 0 126 0;
#X connect 209 0 210 0;
#X connect 210 0 109 0;
#X connect 211 0 305 0;
#X connect 212 0 104 0;
#X connect 213 0 214 0;
#X connect 213 1 214 1;
#X connect 214 0 215 0;
#X connect 215 0 217 1;
#X connect 215 0 220 0;
#X connect 215 0 272 1;
#X connect 215 1 218 1;
#X connect 215 1 220 0;
#X connect 215 1 273 1;
#X connect 216 0 219 0;
#X connect 216 1 217 0;
#X connect 216 2 218 0;
#X connect 217 0 236 0;
#X connect 218 0 243 0;
#X connect 219 0 227 0;
#X connect 220 0 221 0;
#X connect 220 1 221 1;
#X connect 221 0 222 0;
#X connect 222 0 219 1;
#X connect 222 0 294 1;
#X connect 223 0 225 0;
#X connect 224 0 226 0;
#X connect 226 0 225 0;
#X connect 227 0 228 0;
#X connect 227 1 229 1;
#X connect 228 0 229 0;
#X connect 229 0 230 0;
#X connect 230 0 232 0;
#X connect 230 1 231 0;
#X connect 231 0 232 0;
#X connect 232 0 233 0;
#X connect 233 0 232 1;
#X connect 233 0 234 0;
#X connect 234 0 235 0;
#X connect 235 0 251 0;
#X connect 236 0 237 0;
#X connect 236 1 238 1;
#X connect 237 0 238 0;
#X connect 238 0 239 0;
#X connect 239 0 241 0;
#X connect 239 1 240 0;
#X connect 240 0 241 0;
#X connect 241 0 242 0;
#X connect 242 0 241 1;
#X connect 242 0 256 0;
#X connect 243 0 244 0;
#X connect 243 1 245 1;
#X connect 244 0 245 0;
#X connect 245 0 246 0;
#X connect 246 0 248 0;
#X connect 246 1 247 0;
#X connect 247 0 248 0;
#X connect 248 0 249 0;
#X connect 249 0 248 1;
#X connect 249 0 258 0;
#X connect 250 0 251 1;
#X connect 251 0 90 0;
#X connect 252 0 253 1;
#X connect 253 0 263 0;
#X connect 254 0 266 0;
#X connect 254 1 116 2;
#X connect 254 2 121 2;
#X connect 255 0 266 0;
#X connect 255 1 116 1;
#X connect 255 2 121 1;
#X connect 256 0 257 0;
#X connect 257 0 260 0;
#X connect 258 0 259 0;
#X connect 259 0 261 0;
#X connect 260 0 253 0;
#X connect 261 0 260 0;
#X connect 261 1 260 1;
#X connect 262 0 254 0;
#X connect 262 1 255 0;
#X connect 263 0 224 0;
#X connect 263 1 262 0;
#X connect 263 2 223 0;
#X connect 265 0 123 0;
#X connect 265 0 264 0;
#X connect 266 0 268 0;
#X connect 268 0 117 0;
#X connect 269 0 178 0;
#X connect 270 0 172 0;
#X connect 271 0 294 0;
#X connect 271 1 272 0;
#X connect 271 2 273 0;
#X connect 272 0 274 0;
#X connect 273 0 281 0;
#X connect 274 0 275 0;
#X connect 274 1 276 1;
#X connect 275 0 276 0;
#X connect 276 0 277 0;
#X connect 277 0 279 0;
#X connect 277 1 278 0;
#X connect 278 0 279 0;
#X connect 279 0 280 0;
#X connect 280 0 279 1;
#X connect 280 0 288 0;
#X connect 281 0 282 0;
#X connect 281 1 283 1;
#X connect 282 0 283 0;
#X connect 283 0 284 0;
#X connect 284 0 286 0;
#X connect 284 1 285 0;
#X connect 285 0 286 0;
#X connect 286 0 287 0;
#X connect 287 0 286 1;
#X connect 287 0 290 0;
#X connect 288 0 289 0;
#X connect 289 0 292 0;
#X connect 290 0 291 0;
#X connect 291 0 293 0;
#X connect 292 0 300 0;
#X connect 293 0 292 0;
#X connect 293 1 292 1;
#X connect 294 0 23 0;
#X connect 295 0 297 0;
#X connect 296 0 298 0;
#X connect 298 0 297 0;
#X connect 299 0 300 1;
#X connect 300 0 304 0;
#X connect 301 0 169 0;
#X connect 301 1 171 2;
#X connect 301 2 176 2;
#X connect 302 0 169 0;
#X connect 302 1 171 1;
#X connect 302 2 176 1;
#X connect 303 0 301 0;
#X connect 303 1 302 0;
#X connect 304 0 296 0;
#X connect 304 1 303 0;
#X connect 304 2 295 0;
#X connect 305 0 10 0;
#X restore 32 283 pd lfo;
#N canvas -4 -4 1920 998 keyboard 0;
#X obj 397 12 notein 1;
#X obj 397 30 pack f f;
#X obj 397 49 route 38 39;
#X obj 397 68 sel 127;
#X obj 447 68 sel 127;
#X msg 447 88 -1;
#X msg 397 88 1;
#X obj 397 135 float;
#X obj 397 109 t b f;
#X obj 397 163 +;
#X obj 397 239 clip -2 2;
#X obj 181 483 sel -2 -1 0 1 2, f 24;
#X msg 187 650 0;
#X msg 261 650 0;
#X msg 291 650 2;
#X msg 217 650 2;
#X floatatom 176 290 5 0 0 0 - - -;
#X obj 209 510 t b b;
#X msg 181 535 1;
#X msg 211 535 0;
#X obj 265 510 t b b;
#X msg 316 534 1;
#X msg 279 532 0;
#X obj 292 558 metro 100;
#X obj 181 556 metro 100;
#X obj 181 575 tgl 15 0 empty empty empty 17 7 0 10 -262144 -1 -1 0
1;
#X obj 292 579 tgl 15 0 empty empty empty 17 7 0 10 -262144 -1 -1 0
1;
#X obj 292 599 * 2;
#X obj 181 595 * 2;
#X obj 187 668 ctlout 38 1;
#X obj 261 668 ctlout 39 1;
#X obj 570 157 t f f f, f 13;
#X obj 609 178 >= 86;
#X obj 647 178 <= 117;
#X obj 609 198 +;
#X obj 609 217 == 2;
#X obj 570 238 spigot;
#X obj 570 295 unpack;
#X obj 684 260 array define -k -yrange 1 27 keymap 32;
#A 0 0 2 4 0 7 9 11 0 14 16 0 19 21 23 0 26 1 3 5 6 8 10 12 13 15 17
18 20 22 24 25 27;
#X obj 683 228 array set keymap;
#X obj 566 316 - 86;
#X obj 566 358 array get keymap;
#X obj 612 316 loadbang;
#X msg 612 337 1;
#X floatatom 566 440 5 0 0 0 - - -;
#X floatatom 603 440 5 0 0 0 - - -;
#X obj 436 361 * 24;
#X obj 566 420 +;
#X obj 566 399 + 47;
#X text 56 289 Keyboard Oktavlage;
#X obj 566 378 route 0;
#X obj 566 460 pack f f;
#X obj 440 583 unpack f f;
#X obj 570 136 notein 1;
#X obj 570 259 pack f f;
#X text 54 199 hier erst updaten wenn alle realtime notes off sind!
===>;
#X text 695 605 1 when all keys are released;
#X obj 397 187 float;
#X obj 443 163 t b f;
#X text 281 49 Oktavwahlschalter;
#X text 189 687 Oktavwahlschalter LEDs;
#N canvas 521 88 614 381 pressed_notes 0;
#X obj 70 7 inlet;
#X obj 70 68 unpack, f 29;
#X obj 191 6 array define -yrange 0 127 pressed_notes 128;
#X obj 175 116 array set pressed_notes;
#X obj 70 248 array max pressed_notes;
#X obj 70 290 outlet;
#X obj 70 269 == 0;
#X msg 70 27 \$2 \$1;
#X obj 70 89 t b f, f 18;
#X connect 0 0 7 0;
#X connect 1 0 8 0;
#X connect 1 1 3 1;
#X connect 4 0 6 0;
#X connect 6 0 5 0;
#X connect 7 0 1 0;
#X connect 8 0 4 0;
#X connect 8 1 3 0;
#X restore 566 521 pd pressed_notes;
#X obj 397 211 spigot 1;
#X obj 440 774 outlet;
#X obj 566 489 t l l;
#X obj 440 645 pack f f;
#X obj 440 687 unpack f f;
#X obj 440 708 -;
#X obj 400 440 s keyboard_octave;
#X obj 436 382 t f f f;
#X obj 440 729 pack f f;
#X obj 815 718 s MIDI_Out;
#X obj 566 542 t f f;
#X obj 653 602 outlet;
#X obj 516 774 outlet;
#X obj 440 666 t l l l, f 26;
#X text 283 775 note without octave offset;
#X text 553 775 note with octave offset;
#X obj 1079 430 notein 1;
#X obj 1079 451 stripnote;
#X obj 1079 472 sel 50;
#X obj 1079 494 tgl 15 0 empty empty empty 17 7 0 10 -262144 -1 -1
1 1;
#X obj 1079 560 ctlout 50 1;
#X obj 815 694 spigot;
#X obj 1079 514 * 3;
#X obj 1203 439 loadbang;
#X msg 1203 460 1;
#X obj 397 260 t f f, f 7;
#X connect 0 0 1 0;
#X connect 0 1 1 1;
#X connect 1 0 2 0;
#X connect 2 0 3 0;
#X connect 2 1 4 0;
#X connect 3 0 6 0;
#X connect 4 0 5 0;
#X connect 5 0 8 0;
#X connect 6 0 8 0;
#X connect 7 0 9 0;
#X connect 8 0 7 0;
#X connect 8 1 9 1;
#X connect 9 0 57 0;
#X connect 10 0 7 1;
#X connect 10 0 16 0;
#X connect 10 0 87 0;
#X connect 11 0 18 0;
#X connect 11 1 17 0;
#X connect 11 2 12 0;
#X connect 11 2 13 0;
#X connect 11 3 20 0;
#X connect 11 4 21 0;
#X connect 12 0 29 0;
#X connect 13 0 30 0;
#X connect 14 0 30 0;
#X connect 15 0 29 0;
#X connect 17 0 14 0;
#X connect 17 1 19 0;
#X connect 18 0 24 0;
#X connect 19 0 24 0;
#X connect 20 0 15 0;
#X connect 20 1 22 0;
#X connect 21 0 23 0;
#X connect 22 0 23 0;
#X connect 23 0 26 0;
#X connect 24 0 25 0;
#X connect 25 0 28 0;
#X connect 26 0 27 0;
#X connect 27 0 29 0;
#X connect 28 0 30 0;
#X connect 31 0 36 0;
#X connect 31 1 32 0;
#X connect 31 2 33 0;
#X connect 32 0 34 0;
#X connect 33 0 34 1;
#X connect 34 0 35 0;
#X connect 35 0 36 1;
#X connect 36 0 54 0;
#X connect 37 0 40 0;
#X connect 37 1 45 0;
#X connect 40 0 41 0;
#X connect 41 0 50 0;
#X connect 42 0 43 0;
#X connect 43 0 41 1;
#X connect 44 0 51 0;
#X connect 45 0 51 1;
#X connect 46 0 69 0;
#X connect 47 0 44 0;
#X connect 48 0 47 0;
#X connect 50 1 48 0;
#X connect 51 0 64 0;
#X connect 52 0 65 0;
#X connect 52 1 65 1;
#X connect 53 0 31 0;
#X connect 53 1 54 1;
#X connect 54 0 37 0;
#X connect 57 0 62 0;
#X connect 58 0 57 0;
#X connect 58 1 62 1;
#X connect 61 0 72 0;
#X connect 62 0 10 0;
#X connect 64 0 61 0;
#X connect 64 1 52 0;
#X connect 65 0 75 0;
#X connect 66 0 67 0;
#X connect 66 1 70 1;
#X connect 67 0 70 0;
#X connect 69 0 68 0;
#X connect 69 1 67 1;
#X connect 69 2 47 1;
#X connect 70 0 63 0;
#X connect 72 0 73 0;
#X connect 72 1 58 0;
#X connect 75 0 66 0;
#X connect 75 1 74 0;
#X connect 75 2 83 0;
#X connect 78 0 79 0;
#X connect 78 1 79 1;
#X connect 79 0 80 0;
#X connect 80 0 81 0;
#X connect 81 0 83 1;
#X connect 81 0 84 0;
#X connect 83 0 71 0;
#X connect 84 0 82 0;
#X connect 85 0 86 0;
#X connect 86 0 81 0;
#X connect 87 0 11 0;
#X connect 87 1 46 0;
#X restore 1085 253 pd keyboard;
#X obj 1610 169 hsl 128 15 0 1 0 0 empty empty empty -2 -8 0 10 -262144
-1 -1 0 1;
#X floatatom 1607 189 5 0 0 0 - - -;
#X text 1645 189 Swing (0-1);
#X text 1651 148 Swing;
#X obj 1607 209 s swing;
#X obj 773 400 spigot;
#X obj 884 400 spigot;
#X msg 37 406 5 555 0;
#X msg 107 406 8 333 40;
#X text 88 484 num 0 31;
#X text 88 494 hue 0 - 768;
#X text 88 504 bright -127 - 127;
#X obj 624 400 spigot 1;
#X text 480 422 sequencer buttons without modifiers;
#N canvas -8 -8 1600 817 live_record_steps 0;
#X obj 260 124 inlet;
#X text 304 123 on/off;
#X obj 336 291 clone jay_record_note 128;
#X obj 455 124 inlet;
#X text 499 123 MIDI Note list;
#X obj 343 203 spigot;
#X text 786 53 0;
#X text 846 53 -1;
#X text 906 53 -1;
#X text 1086 53 1;
#X text 1136 53 -1;
#X text 786 34 active / length / velocity / trigger-condition / flam
/ pitches, f 78;
#X text 1006 53 11;
#X connect 0 0 5 1;
#X connect 3 0 5 0;
#X connect 5 0 2 0;
#X restore 1248 148 pd live_record_steps;
#N canvas -8 -8 1600 817 set_seq_counting 0;
#X obj 511 229 inlet;
#X obj 720 218 inlet;
#X obj 504 491 outlet;
#X obj 624 491 outlet;
#X obj 784 491 outlet;
#X obj 731 336 unpack f f;
#X text 748 507 counting direction;
#X obj 628 336 unpack f f;
#X obj 628 357 -;
#X obj 628 378 abs;
#X text 601 508 counting range;
#X obj 526 336 unpack f f;
#X obj 526 356 min;
#X obj 526 314 t l l l, f 35;
#X text 486 510 counting start;
#X obj 731 357 >;
#X obj 628 398 + 1;
#X obj 730 268 t b f;
#X obj 526 291 pack f f, f 39;
#X obj 816 213 loadbang;
#X msg 816 234 31;
#X obj 533 442 v count_start;
#X obj 643 442 v count_range;
#X obj 783 442 v count_direction;
#X connect 0 0 18 0;
#X connect 1 0 17 0;
#X connect 5 0 15 0;
#X connect 5 1 15 1;
#X connect 7 0 8 0;
#X connect 7 1 8 1;
#X connect 8 0 9 0;
#X connect 9 0 16 0;
#X connect 11 0 12 0;
#X connect 11 1 12 1;
#X connect 12 0 21 0;
#X connect 12 0 2 0;
#X connect 13 0 11 0;
#X connect 13 1 7 0;
#X connect 13 2 5 0;
#X connect 15 0 23 0;
#X connect 15 0 4 0;
#X connect 16 0 22 0;
#X connect 16 0 3 0;
#X connect 17 0 18 0;
#X connect 17 1 18 1;
#X connect 18 0 13 0;
#X connect 19 0 20 0;
#X connect 20 0 17 0;
#X restore 773 440 pd set_seq_counting;
#N canvas -8 -8 1600 817 set_pitch_sequencer 0;
#X obj 565 21 inlet;
#X obj 26 95 text define -k pitch_sequencer;
#A set 1 48 \; 1 48 \; 1 36 \; 0 \; 0 \; 0 \; 0 \; 0 \; 0 \; 0 \; 0
\; 0 \; 0 \; 0 \; 0 \; 0 \; 0 \; 0 \; 0 \; 0 \; 0 \; 0 \; 0 \; 0 \;
0 \; 0 \; 0 \; 0 \; 0 \; 0 \; 0 \; 0 \;;
#X obj 289 26 inlet;
#X text 601 19 seq_mode on/off;
#X text 328 26 stepbuttons;
#X obj 289 117 spigot;
#X obj 565 126 sel 0;
#X text 604 126 reset when mode is exited;
#X obj 1033 168 array sum pressed_notes;
#X obj 1033 200 sel 0;
#X obj 1100 123 loadbang;
#X msg 1100 144 -1;
#X text 25 36 active / pitches;
#X text 38 57 0;
#X text 98 57 -1;
#X obj 289 334 unpack f f;
#X obj 835 11 inlet;
#X text 871 9 keyboard input;
#X text 1096 209 wenn alle == 0 dann werden alle vorher gedrückten
noten gespeichert;
#X obj 835 81 unpack f f;
#X obj 835 102 stripnote;
#X obj 835 123 t b f;
#X msg 835 144 1;
#X obj 835 164 array set pseq_saved_notes;
#X obj 1087 387 array get pseq_saved_notes;
#X obj 1060 273 until;
#X obj 1060 301 f;
#X obj 1098 301 + 1;
#X obj 1143 300 sel 0;
#X obj 1098 327 mod 128;
#X msg 1060 251 128;
#X obj 1163 344 loadbang;
#X obj 1033 8 inlet;
#X text 1069 6 all keys up = 1;
#X obj 1033 134 sel 1;
#X obj 1060 413 spigot;
#X obj 1060 358 t f f;
#X obj 1079 488 array set pseq_saved_notes;
#X obj 1060 434 t f b f;
#X msg 1079 463 0;
#X obj 1033 605 s last_pressed_notes;
#X msg 1163 365 1;
#X obj 26 113 array define pseq_saved_notes 128;
#X obj 1033 221 t b b;
#X obj 1060 512 list;
#X obj 1060 533 t l l;
#X obj 1039 568 list;
#X obj 1018 492 t b b;
#X obj 290 416 r last_pressed_notes;
#X obj 26 131 array define pseq_pressed_steps 32;
#X obj 289 383 array set pseq_pressed_steps;
#X msg 289 314 \$2 \$1;
#X obj 289 355 != 0;
#X obj 290 437 t b l, f 39;
#X obj 290 481 until;
#X obj 290 509 f;
#X obj 328 509 + 1;
#X obj 373 508 sel 0;
#X msg 290 459 32;
#X obj 328 535 mod 32;
#X obj 317 585 array get pseq_pressed_steps;
#X obj 399 541 loadbang;
#X msg 399 562 1;
#X obj 290 611 spigot;
#X obj 290 632 list, f 39;
#X obj 565 307 array set pseq_pressed_steps;
#X obj 565 178 until;
#X obj 565 206 f;
#X obj 603 206 + 1;
#X obj 648 205 sel 0;
#X msg 565 156 32;
#X obj 603 232 mod 32;
#X msg 565 257 0 \$1;
#X obj 565 278 unpack f f;
#X obj 521 584 list prepend 1;
#X obj 26 345 text set pitch_sequencer;
#X obj 26 218 until;
#X obj 26 246 f;
#X obj 64 246 + 1;
#X obj 109 245 sel 0;
#X msg 26 196 32;
#X obj 64 272 mod 32;
#X msg 26 297 0 \$1;
#X obj 26 318 unpack f f;
#X obj 565 92 t f f f, f 38;
#X obj 790 306 sel 1;
#X text 829 307 clear and load LEDs;
#X obj 290 560 t f f;
#X obj 390 236 unpack f f;
#X obj 390 257 stripnote;
#X obj 390 335 text set pitch_sequencer;
#X msg 390 282 0 \$1;
#X obj 390 308 unpack f f;
#X obj 844 543 text get pitch_sequencer;
#X obj 817 428 until;
#X obj 817 456 f;
#X obj 855 456 + 1;
#X obj 900 455 sel 0;
#X msg 817 406 32;
#X obj 855 482 mod 32;
#X obj 817 517 t f f;
#X msg 844 564 \$1;
#X obj 817 628 pack f f;
#X obj 817 674 s LED_num_hue_bright_(Pitch-Sequencer);
#X obj 844 585 * 127;
#X obj 844 606 - 127;
#X msg 817 649 \$1 111 \$2;
#X obj 373 717 text set pitch_sequencer;
#X obj 339 684 list split 1;
#X obj 436 684 list split 1;
#X obj 575 367 r LED_stored_pitch_seq_step;
#X obj 290 663 t b l l, f 17;
#X obj 790 357 t b b;
#X obj 575 388 t b f;
#X obj 687 505 f;
#X msg 687 529 \$1 500 0;
#X obj 26 149 text define -k stored_pitches;
#A set 1 48 \;;
#X obj 289 168 t l b l, f 21;
#X obj 411 188 route 0;
#N canvas 0 50 450 300 list_serializer 0;
#X obj 110 111 until;
#X obj 123 194 list store;
#X obj 136 78 t b b l;
#X obj 110 136 f;
#X obj 148 137 + 1;
#X msg 162 111 0, f 2;
#X msg 109 165 get \$1 1;
#X obj 139 42 inlet;
#X obj 123 215 outlet;
#X connect 0 0 3 0;
#X connect 1 0 8 0;
#X connect 1 1 0 1;
#X connect 2 0 0 0;
#X connect 2 1 5 0;
#X connect 2 2 1 1;
#X connect 3 0 4 0;
#X connect 3 0 6 0;
#X connect 4 0 3 1;
#X connect 5 0 3 1;
#X connect 6 0 1 0;
#X connect 7 0 2 0;
#X restore 1760 156 pd list_serializer;
#X obj 1787 406 array get mapkey;
#X obj 1833 364 loadbang;
#X msg 1833 385 1;
#X obj 1787 364 - 48;
#X obj 1805 203 r keyboard_octave;
#X obj 1805 264 t f f;
#X obj 1832 286 + 27;
#X obj 1760 288 moses 48;
#X obj 1787 324 moses 75;
#X obj 1805 244 + 48;
#X obj 1805 224 t f f, f 10;
#X obj 1862 286 * -1;
#X obj 1787 345 +, f 14;
#X obj 1787 545 text set key_colours;
#X obj 1826 450 text search key_colours 0;
#X obj 1787 427 t f f, f 7;
#X obj 1733 129 t b l;
#X msg 1787 478 \$1 222 0;
#X obj 1502 442 s reset_keyboard_colours;
#X obj 289 137 t l l;
#X obj 1502 276 t l l;
#X obj 1529 341 text get pitch_sequencer;
#X obj 1529 299 unpack f f;
#X obj 1529 320 stripnote;
#X obj 1529 362 route 1;
#X obj 1600 298 loadbang;
#X msg 1600 319 -1;
#X msg 1502 397 \$2;
#X obj 1502 418 sel 0;
#N canvas 0 50 450 454 new_keyboard_colours 0;
#X msg 65 84 32;
#X obj 65 105 until;
#X msg 65 126 1;
#X obj 65 147 +;
#X obj 101 147 mod 32;
#X obj 65 168 - 1;
#X obj 65 197 text get key_colours;
#X obj 65 294 s LED_num_hue_bright_(keys);
#X obj 65 58 t b;
#X obj 65 24 inlet;
#X connect 0 0 1 0;
#X connect 1 0 2 0;
#X connect 2 0 3 0;
#X connect 3 0 4 0;
#X connect 3 0 5 0;
#X connect 4 0 3 1;
#X connect 5 0 6 0;
#X connect 6 0 7 0;
#X connect 8 0 0 0;
#X connect 9 0 8 0;
#X restore 1733 649 pd new_keyboard_colours;
#X obj 404 89 s reset_keyboard_colours;
#X obj 565 42 t f f;
#X obj 474 68 sel 1;
#X connect 0 0 151 0;
#X connect 2 0 5 0;
#X connect 5 0 139 0;
#X connect 6 0 70 0;
#X connect 8 0 9 0;
#X connect 9 0 43 0;
#X connect 10 0 11 0;
#X connect 11 0 8 1;
#X connect 15 0 52 0;
#X connect 15 1 50 1;
#X connect 16 0 19 0;
#X connect 19 0 20 0;
#X connect 19 1 20 1;
#X connect 20 0 21 0;
#X connect 21 0 22 0;
#X connect 21 1 23 1;
#X connect 22 0 23 0;
#X connect 24 0 35 1;
#X connect 25 0 26 0;
#X connect 26 0 27 0;
#X connect 26 0 36 0;
#X connect 27 0 29 0;
#X connect 28 0 25 1;
#X connect 29 0 26 1;
#X connect 29 0 28 0;
#X connect 30 0 25 0;
#X connect 31 0 41 0;
#X connect 32 0 34 0;
#X connect 34 0 8 0;
#X connect 35 0 38 0;
#X connect 36 0 35 0;
#X connect 36 1 24 0;
#X connect 38 0 44 0;
#X connect 38 1 39 0;
#X connect 38 2 37 1;
#X connect 39 0 37 0;
#X connect 41 0 24 1;
#X connect 43 0 47 0;
#X connect 43 1 30 0;
#X connect 44 0 45 0;
#X connect 45 0 46 1;
#X connect 45 1 44 1;
#X connect 46 0 40 0;
#X connect 47 0 46 0;
#X connect 47 1 44 1;
#X connect 48 0 53 0;
#X connect 51 0 15 0;
#X connect 52 0 50 0;
#X connect 53 0 58 0;
#X connect 53 1 74 0;
#X connect 54 0 55 0;
#X connect 55 0 56 0;
#X connect 55 0 87 0;
#X connect 56 0 59 0;
#X connect 57 0 54 1;
#X connect 58 0 54 0;
#X connect 59 0 55 1;
#X connect 59 0 57 0;
#X connect 60 0 63 1;
#X connect 61 0 62 0;
#X connect 62 0 60 1;
#X connect 63 0 64 0;
#X connect 64 0 111 0;
#X connect 66 0 67 0;
#X connect 67 0 68 0;
#X connect 67 0 72 0;
#X connect 68 0 71 0;
#X connect 69 0 66 1;
#X connect 70 0 66 0;
#X connect 71 0 67 1;
#X connect 71 0 69 0;
#X connect 72 0 73 0;
#X connect 73 0 65 0;
#X connect 73 1 65 1;
#X connect 74 0 64 1;
#X connect 76 0 77 0;
#X connect 77 0 78 0;
#X connect 77 0 82 0;
#X connect 78 0 81 0;
#X connect 79 0 76 1;
#X connect 80 0 76 0;
#X connect 81 0 77 1;
#X connect 81 0 79 0;
#X connect 82 0 83 0;
#X connect 83 0 75 0;
#X connect 83 1 75 1;
#X connect 84 0 6 0;
#X connect 84 1 5 1;
#X connect 84 2 85 0;
#X connect 85 0 112 0;
#X connect 87 0 63 0;
#X connect 87 1 60 0;
#X connect 88 0 89 0;
#X connect 88 1 89 1;
#X connect 89 0 91 0;
#X connect 91 0 92 0;
#X connect 92 0 90 0;
#X connect 92 1 90 1;
#X connect 93 0 101 0;
#X connect 94 0 95 0;
#X connect 95 0 96 0;
#X connect 95 0 100 0;
#X connect 96 0 99 0;
#X connect 97 0 94 1;
#X connect 98 0 94 0;
#X connect 99 0 95 1;
#X connect 99 0 97 0;
#X connect 100 0 102 0;
#X connect 100 1 93 0;
#X connect 101 0 104 0;
#X connect 102 0 106 0;
#X connect 104 0 105 0;
#X connect 105 0 102 1;
#X connect 106 0 103 0;
#X connect 108 1 107 0;
#X connect 109 0 107 1;
#X connect 110 0 113 0;
#X connect 111 0 112 0;
#X connect 111 1 108 0;
#X connect 111 2 109 0;
#X connect 112 0 114 0;
#X connect 112 1 98 0;
#X connect 113 0 112 0;
#X connect 113 1 114 1;
#X connect 114 0 115 0;
#X connect 115 0 103 0;
#X connect 117 0 51 0;
#X connect 117 1 112 0;
#X connect 117 2 118 0;
#X connect 118 1 88 0;
#X connect 119 0 127 0;
#X connect 120 0 135 0;
#X connect 121 0 122 0;
#X connect 122 0 120 1;
#X connect 123 0 120 0;
#X connect 124 0 130 0;
#X connect 125 0 127 1;
#X connect 125 1 126 0;
#X connect 126 0 128 1;
#X connect 127 1 128 0;
#X connect 128 0 132 0;
#X connect 129 0 125 0;
#X connect 130 0 129 0;
#X connect 130 1 131 0;
#X connect 131 0 132 1;
#X connect 132 0 123 0;
#X connect 134 0 133 1;
#X connect 135 0 137 0;
#X connect 135 1 134 0;
#X connect 136 0 149 0;
#X connect 136 1 119 0;
#X connect 137 0 133 0;
#X connect 139 0 117 0;
#X connect 139 1 140 0;
#X connect 140 0 147 0;
#X connect 140 1 142 0;
#X connect 141 0 144 0;
#X connect 142 0 143 0;
#X connect 142 1 143 1;
#X connect 143 0 141 0;
#X connect 144 0 136 0;
#X connect 145 0 146 0;
#X connect 146 0 141 1;
#X connect 147 0 148 0;
#X connect 148 0 138 0;
#X connect 151 0 152 0;
#X connect 151 1 84 0;
#X connect 152 0 150 0;
#X restore 961 389 pd set_pitch_sequencer;
#X obj 32 686 clone jay_2list_change 64;
#X obj 61 463 s LED_num_hue_bright;
#N canvas -8 -8 1600 817 LED_Control 0;
#X obj 223 226 t f f, f 10;
#X obj 223 247 div 128;
#X obj 280 247 mod 128;
#X floatatom 418 270 5 0 0 0 - - -;
#X floatatom 475 270 5 0 0 0 - - -;
#X text 873 229 0 3 - 1 2 + 2 1 - 3 3 + 4 2 - 5 1 +;
#X obj 223 268 pack f f;
#X obj 223 289 route 0 1 2 3 4 5, f 212;
#X msg 223 331 127;
#X msg 260 331 0;
#X obj 298 371 -, f 6;
#X msg 298 351 127;
#X obj 223 310 t f f f, f 13;
#X obj 298 331 t b f;
#X msg 434 331 127;
#X obj 434 310 t f f f, f 13;
#X msg 509 331 0;
#X obj 644 310 t f f f, f 13;
#X obj 639 371 -, f 6;
#X msg 639 351 127;
#X obj 639 331 t b f;
#X msg 681 331 127;
#X msg 719 331 0;
#X obj 855 310 t f f f, f 13;
#X msg 855 331 0;
#X msg 892 331 127;
#X obj 1067 310 t f f f, f 13;
#X obj 1102 371 -, f 6;
#X msg 1102 351 127;
#X obj 1102 331 t b f;
#X msg 1142 331 127;
#X msg 1067 331 0;
#X obj 1278 310 t f f f, f 13;
#X msg 1315 331 0;
#X msg 1353 331 127;
#X obj 223 400 pack f f f, f 13;
#X obj 434 400 pack f f f, f 13;
#X obj 644 400 pack f f f, f 13;
#X obj 855 400 pack f f f, f 13;
#X obj 1067 400 pack f f f, f 13;
#X obj 1278 400 pack f f f, f 13;
#X obj 43 84 unpack f f f;
#X obj 223 505 +;
#X obj 329 505 +;
#X obj 436 505 +;
#X obj 436 526 clip 0 127;
#X obj 329 526 clip 0 127;
#X obj 223 526 clip 0 127;
#X obj 223 458 unpack f f f, f 36;
#N canvas 0 50 450 300 sysexout 0;
#X obj 14 -75 inlet;
#N canvas 0 0 450 300 list-drip 0;
#X obj 73 94 t a a;
#X obj 73 251 spigot;
#X obj 112 159 bang;
#X obj 112 178 1;
#X obj 233 159 route bang;
#X obj 193 160 bang;
#X obj 193 179 0;
#X obj 112 124 list split 2;
#X obj 242 389 list split;
#X obj 309 338 list length;
#X obj 309 360 >> 1;
#X obj 73 270 t a a a a;
#X obj 73 456 list split;
#X obj 140 408 list length;
#X obj 140 433 >> 1;
#X obj 41 29 inlet;
#X obj 300 185 outlet;
#X text 83 29 Copyright 2009 by Mathieu Bouchard;
#X obj 41 63 t b a;
#X obj 475 129 outlet;
#X text 530 131 signal end of list;
#X text 391 33 made compatible with [list-drip]: fbar 2009;
#X connect 0 0 1 0;
#X connect 0 1 7 0;
#X connect 1 0 11 0;
#X connect 2 0 3 0;
#X connect 3 0 1 1;
#X connect 4 1 16 0;
#X connect 5 0 6 0;
#X connect 6 0 1 1;
#X connect 7 0 2 0;
#X connect 7 2 4 0;
#X connect 7 2 5 0;
#X connect 8 0 0 0;
#X connect 9 0 10 0;
#X connect 10 0 8 1;
#X connect 11 0 12 0;
#X connect 11 1 13 0;
#X connect 11 2 8 0;
#X connect 11 3 9 0;
#X connect 12 1 0 0;
#X connect 13 0 14 0;
#X connect 14 0 12 1;
#X connect 15 0 18 0;
#X connect 18 0 19 0;
#X connect 18 1 0 0;
#X restore 14 11 pd list-drip;
#X obj 14 -32 t a b b;
#X msg 76 81 add2 \$1;
#X msg 14 81 addcomma;
#X obj 14 54 t b f;
#X msg 293 61 addcomma;
#X obj 83 35 t b b;
#X obj 14 183 midiout;
#X msg 178 126 add2 247;
#X msg 364 61 set 240;
#X obj 394 -75 inlet;
#X msg 14 150 240 \, 71 \, 127 \, 67 \, 101 \, 0 \, 4 \, 55 \, 127
\, 94 \, 0 \, 247;
#X text 268 179 by Georg Werner 2010;
#X connect 0 0 2 0;
#X connect 1 0 5 0;
#X connect 1 1 7 0;
#X connect 2 0 1 0;
#X connect 2 1 6 0;
#X connect 2 2 10 0;
#X connect 3 0 12 0;
#X connect 4 0 12 0;
#X connect 5 0 4 0;
#X connect 5 1 3 0;
#X connect 6 0 12 0;
#X connect 7 0 12 0;
#X connect 7 1 9 0;
#X connect 9 0 12 0;
#X connect 10 0 12 0;
#X connect 11 0 8 1;
#X connect 12 0 8 0;
#X restore 115 678 pd sysexout;
#X msg 115 651 71 127 67 101 0 4 \$1 \$2 \$3 \$4;
#X obj 115 629 pack f f f f, f 54;
#X obj 598 472 t f f f;
#X obj 44 59 inlet;
#X obj 158 193 sel 998;
#X msg 158 573 27;
#X connect 0 0 1 0;
#X connect 0 1 2 0;
#X connect 1 0 3 0;
#X connect 1 0 6 0;
#X connect 2 0 4 0;
#X connect 2 0 6 1;
#X connect 6 0 7 0;
#X connect 7 0 12 0;
#X connect 7 1 15 0;
#X connect 7 2 17 0;
#X connect 7 3 23 0;
#X connect 7 4 26 0;
#X connect 7 5 32 0;
#X connect 8 0 35 0;
#X connect 9 0 35 1;
#X connect 10 0 35 2;
#X connect 11 0 10 0;
#X connect 12 0 8 0;
#X connect 12 1 9 0;
#X connect 12 2 13 0;
#X connect 13 0 11 0;
#X connect 13 1 10 1;
#X connect 14 0 36 0;
#X connect 15 0 14 0;
#X connect 15 1 36 1;
#X connect 15 2 16 0;
#X connect 16 0 36 2;
#X connect 17 0 20 0;
#X connect 17 1 21 0;
#X connect 17 2 22 0;
#X connect 18 0 37 0;
#X connect 19 0 18 0;
#X connect 20 0 19 0;
#X connect 20 1 18 1;
#X connect 21 0 37 1;
#X connect 22 0 37 2;
#X connect 23 0 24 0;
#X connect 23 1 25 0;
#X connect 23 2 38 2;
#X connect 24 0 38 0;
#X connect 25 0 38 1;
#X connect 26 0 31 0;
#X connect 26 1 29 0;
#X connect 26 2 30 0;
#X connect 27 0 39 1;
#X connect 28 0 27 0;
#X connect 29 0 28 0;
#X connect 29 1 27 1;
#X connect 30 0 39 2;
#X connect 31 0 39 0;
#X connect 32 0 40 0;
#X connect 32 1 33 0;
#X connect 32 2 34 0;
#X connect 33 0 40 1;
#X connect 34 0 40 2;
#X connect 35 0 48 0;
#X connect 36 0 48 0;
#X connect 37 0 48 0;
#X connect 38 0 48 0;
#X connect 39 0 48 0;
#X connect 40 0 48 0;
#X connect 41 0 51 0;
#X connect 41 1 54 0;
#X connect 41 2 52 0;
#X connect 42 0 47 0;
#X connect 43 0 46 0;
#X connect 44 0 45 0;
#X connect 45 0 51 3;
#X connect 46 0 51 2;
#X connect 47 0 51 1;
#X connect 48 0 42 0;
#X connect 48 1 43 0;
#X connect 48 2 44 0;
#X connect 50 0 49 0;
#X connect 51 0 50 0;
#X connect 52 0 42 1;
#X connect 52 1 43 1;
#X connect 52 2 44 1;
#X connect 53 0 41 0;
#X connect 54 0 55 0;
#X connect 54 1 0 0;
#X connect 55 0 51 1;
#X connect 55 0 51 2;
#X connect 55 0 51 3;
#X restore 32 713 pd LED_Control;
#X text 28 554 upper Modes: Stepsequencer (0) / LFO (1) / Step-Values
(2) / Pitch-Sequencer (3), f 80;
#N canvas 18 81 772 808 upper_modes 0;
#X obj 279 18 notein 1;
#X obj 279 39 pack f f;
#X obj 279 120 route 16 17 18 19, f 24;
#X obj 303 194 t b f;
#X obj 279 215 +, f 9;
#X obj 384 194 t b f;
#X obj 360 215 +, f 9;
#X obj 360 244 t b f;
#X obj 279 265 +, f 19;
#X obj 279 286 != 0;
#X floatatom 323 313 5 0 0 0 - - -;
#X obj 459 51 r pitch_seq_on_off;
#X floatatom 479 92 5 0 0 0 - - -;
#X obj 459 350 * 1;
#X obj 459 376 t b f;
#X obj 279 407 +, f 35;
#X obj 279 446 t b f;
#X obj 129 477 +, f 30;
#X msg 129 619 0;
#X msg 175 619 1;
#X msg 225 619 2;
#X msg 275 619 3;
#X obj 129 679 outlet;
#X obj 129 350 * 10;
#X obj 279 350 * 100;
#X obj 129 36 inlet;
#X obj 129 107 != 0;
#X msg 129 57 \$2;
#X obj 627 213 t f f, f 8;
#X obj 587 238 ctlout 33 1;
#X obj 587 129 loadbang;
#X msg 587 150 0;
#X msg 378 622 4;
#X obj 672 237 == 127;
#X obj 672 258 * 1000;
#X obj 609 506 t b f;
#X obj 129 537 +, f 85;
#X obj 129 568 sel 0 100 10 110 1 11 111, f 42;
#X obj 378 590 t b;
#X obj 627 187 r pitch_quant_on_off;
#X connect 0 0 1 0;
#X connect 0 1 1 1;
#X connect 1 0 2 0;
#X connect 2 0 4 0;
#X connect 2 1 3 0;
#X connect 2 2 6 0;
#X connect 2 3 5 0;
#X connect 3 0 4 0;
#X connect 3 1 4 1;
#X connect 4 0 8 0;
#X connect 5 0 6 0;
#X connect 5 1 6 1;
#X connect 6 0 7 0;
#X connect 7 0 8 0;
#X connect 7 1 8 1;
#X connect 8 0 9 0;
#X connect 9 0 10 0;
#X connect 9 0 24 0;
#X connect 11 0 12 0;
#X connect 11 0 13 0;
#X connect 13 0 14 0;
#X connect 14 0 15 0;
#X connect 14 1 15 1;
#X connect 15 0 16 0;
#X connect 16 0 17 0;
#X connect 16 1 17 1;
#X connect 17 0 36 0;
#X connect 18 0 22 0;
#X connect 19 0 22 0;
#X connect 20 0 22 0;
#X connect 21 0 22 0;
#X connect 23 0 17 0;
#X connect 24 0 15 0;
#X connect 25 0 27 0;
#X connect 26 0 23 0;
#X connect 27 0 26 0;
#X connect 28 0 29 0;
#X connect 28 1 33 0;
#X connect 30 0 31 0;
#X connect 31 0 29 0;
#X connect 32 0 22 0;
#X connect 33 0 34 0;
#X connect 34 0 35 0;
#X connect 35 0 36 0;
#X connect 35 1 36 1;
#X connect 36 0 37 0;
#X connect 37 0 18 0;
#X connect 37 1 19 0;
#X connect 37 2 20 0;
#X connect 37 3 20 0;
#X connect 37 4 21 0;
#X connect 37 5 21 0;
#X connect 37 6 21 0;
#X connect 37 7 38 0;
#X connect 38 0 32 0;
#X connect 39 0 28 0;
#X restore 643 521 pd upper_modes;
#X obj 1082 348 s pitch_seq_on_off;
#X obj 32 599 r LED_num_hue_bright_(Sequencer);
#X obj 239 599 r LED_num_hue_bright_(LFO);
#N canvas -8 -8 1600 817 query_steps 0;
#X obj 288 175 text get sequence;
#X obj 74 416 s LED_num_hue_bright_(Sequencer);
#X obj 74 122 r miditimecode;
#X text 45 70 0;
#X text 105 70 -1;
#X text 165 70 -1;
#X text 395 70 -1;
#X text 45 51 active / length / velocity / trigger-condition / flam
/ pitches, f 63;
#X obj 288 196 route 1;
#X obj 393 671 list split 4;
#X obj 393 692 unpack f f f f, f 44;
#X obj 393 733 sel -1;
#X obj 482 733 sel -1;
#X obj 288 651 t l l, f 18;
#X obj 288 671 list split 4;
#X msg 567 487 \$3;
#X text 265 70 11;
#X obj 567 507 t f f;
#X obj 597 528 % 10;
#X obj 567 528 / 10;
#X obj 567 549 int;
#X obj 567 570 ==, f 5;
#X obj 288 613 spigot;
#X obj 288 217 t l l l, f 47;
#X obj 427 257 t f f;
#X obj 457 278 % 10;
#X obj 427 278 / 10;
#X obj 427 299 int;
#X obj 457 299 t f f;
#X obj 427 320 mod, f 5;
#X obj 427 341 + 1;
#X obj 427 362 * 10;
#X obj 427 383 +, f 10;
#X obj 74 143 t f f f, f 72;
#X obj 470 438 text set sequence;
#X obj 536 394 loadbang;
#X msg 536 415 3;
#X msg 427 237 \$3;
#X text 345 70 0;
#X obj 336 834 list;
#X obj 288 692 t l l, f 12;
#X obj 681 754 delay, f 10;
#X obj 288 855 t l;
#X obj 738 712 r step_length;
#X obj 338 1125 pack f f f, f 30;
#X obj 738 733 / 2;
#X obj 393 754 s get_velocity;
#X obj 482 754 s get_length;
#X obj 555 974 r got_velocity;
#X obj 651 974 r got_length;
#X obj 555 995 * 63;
#X obj 651 995 + 1;
#X obj 651 1016 / 2;
#X obj 651 1057 +;
#X obj 651 1037 *;
#N canvas 0 50 450 300 list_serializer 0;
#X obj 142 117 until;
#X obj 155 200 list store;
#X obj 168 84 t b b l;
#X obj 142 142 f;
#X obj 180 143 + 1;
#X msg 194 117 0, f 2;
#X msg 141 171 get \$1 1;
#X obj 173 42 inlet;
#X obj 155 221 outlet;
#X connect 0 0 3 0;
#X connect 1 0 8 0;
#X connect 1 1 0 1;
#X connect 2 0 0 0;
#X connect 2 1 5 0;
#X connect 2 2 1 1;
#X connect 3 0 4 0;
#X connect 3 0 6 0;
#X connect 4 0 3 1;
#X connect 5 0 3 1;
#X connect 6 0 1 0;
#X connect 7 0 2 0;
#X restore 333 1082 pd list_serializer;
#X obj 555 1016 + 64;
#X obj 555 1037 + 0.49999;
#X obj 555 1058 int;
#X obj 288 876 route -1;
#X obj 338 1272 makenote;
#X obj 338 1233 unpack f f f;
#N canvas 0 50 450 565 LED_Triggered_Notes 0;
#X obj 268 19 inlet;
#X obj 43 19 inlet;
#N canvas -8 -8 1600 817 keyboard_inactive_colours 0;
#X text 193 698 num 0 31;
#X text 193 708 hue 0 - 768;
#X text 193 718 bright -127 - 127;
#X obj 166 501 loadbang;
#X msg 166 527 32;
#X obj 166 548 until;
#X msg 166 569 1;
#X obj 166 590 +;
#X obj 202 590 mod 32;
#X obj 166 611 - 1;
#X obj 166 640 text get key_colours;
#X obj 297 516 inlet;
#X obj 297 583 text search key_colours 0;
#X obj 166 677 s LED_num_hue_bright_(keys);
#X connect 3 0 4 0;
#X connect 4 0 5 0;
#X connect 5 0 6 0;
#X connect 6 0 7 0;
#X connect 7 0 8 0;
#X connect 7 0 9 0;
#X connect 8 0 7 1;
#X connect 9 0 10 0;
#X connect 10 0 13 0;
#X connect 11 0 12 0;
#X connect 12 0 10 0;
#X restore 43 522 pd keyboard_inactive_colours;
#X obj 82 451 pack f 0, f 9;
#X obj 43 362 pack f f, f 38;
#X msg 43 383 \$2 \$1;
#X obj 43 404 route 0;
#X msg 82 423 \$2;
#X obj 43 332 array get mapkey;
#X obj 89 290 loadbang;
#X msg 89 311 1;
#X obj 43 258 - 48;
#X obj 82 493 s LED_num_hue_bright_(Triggered_Notes);
#X msg 82 472 \$1 400 0;
#X obj 88 47 r keyboard_octave;
#X obj 88 108 t f f;
#X obj 115 130 + 27;
#X obj 43 132 moses 48;
#X obj 70 168 moses 75;
#X obj 88 88 + 48;
#X obj 88 68 t f f, f 10;
#X obj 145 130 * -1;
#X obj 70 189 +, f 14;
#X connect 0 0 4 1;
#X connect 1 0 17 0;
#X connect 3 0 13 0;
#X connect 4 0 5 0;
#X connect 5 0 6 0;
#X connect 6 0 2 0;
#X connect 6 1 7 0;
#X connect 7 0 3 0;
#X connect 8 0 4 0;
#X connect 9 0 10 0;
#X connect 10 0 8 1;
#X connect 11 0 8 0;
#X connect 13 0 12 0;
#X connect 14 0 20 0;
#X connect 15 0 17 1;
#X connect 15 1 16 0;
#X connect 16 0 18 1;
#X connect 17 1 18 0;
#X connect 18 0 22 0;
#X connect 19 0 15 0;
#X connect 20 0 19 0;
#X connect 20 1 21 0;
#X connect 21 0 22 1;
#X connect 22 0 11 0;
#X restore 338 1321 pd LED_Triggered_Notes;
#X obj 338 1213 t l l, f 29;
#X obj 509 1319 s MIDI_Out;
#X obj 509 1272 makenote;
#X obj 509 1233 unpack f f f;
#X obj 509 1293 pack f f;
#X text 307 435 0 = off;
#X text 307 455 1 = on default;
#X text 307 475 2 = on non default;
#N canvas -8 -8 1600 817 set_seq_min_max_LEDs 0;
#X obj 102 57 inlet;
#X obj 203 141 v count_start;
#X obj 112 141 v count_range;
#X obj 295 141 v count_direction;
#X obj 112 113 t b b b, f 31;
#X obj 295 162 sel 0 1;
#X obj 224 183 until;
#X msg 224 204 1;
#X obj 224 225 +;
#X obj 224 246 f;
#X obj 224 391 list, f 16;
#X obj 224 267 - 1;
#X obj 203 162 t f f b, f 11;
#X msg 266 225 0;
#X obj 112 189 +;
#X obj 112 273 until;
#X msg 112 294 1;
#X obj 112 315 +;
#X obj 112 336 f;
#X msg 181 315 0;
#X obj 112 357 +, f 6;
#X obj 112 210 t f f, f 9;
#X obj 112 162 t f b, f 12;
#X obj 112 252 abs;
#X obj 224 484 outlet;
#X obj 112 231 - 32;
#X obj 224 288 route -1;
#X text 438 182 Stepsequencer range hue;
#X msg 295 203 130 -90;
#X msg 355 203 600 -90;
#X connect 0 0 4 0;
#X connect 1 0 12 0;
#X connect 2 0 22 0;
#X connect 3 0 5 0;
#X connect 4 0 2 0;
#X connect 4 1 1 0;
#X connect 4 2 3 0;
#X connect 5 0 28 0;
#X connect 5 1 29 0;
#X connect 6 0 7 0;
#X connect 7 0 8 0;
#X connect 8 0 9 0;
#X connect 9 0 8 1;
#X connect 9 0 11 0;
#X connect 10 0 24 0;
#X connect 11 0 26 0;
#X connect 12 0 14 1;
#X connect 12 1 6 0;
#X connect 12 2 13 0;
#X connect 13 0 9 0;
#X connect 14 0 21 0;
#X connect 15 0 16 0;
#X connect 16 0 17 0;
#X connect 17 0 18 0;
#X connect 18 0 17 1;
#X connect 18 0 20 0;
#X connect 19 0 18 0;
#X connect 20 0 10 0;
#X connect 21 0 25 0;
#X connect 21 1 20 1;
#X connect 22 0 14 0;
#X connect 22 1 19 0;
#X connect 23 0 15 0;
#X connect 25 0 23 0;
#X connect 26 1 10 0;
#X connect 28 0 10 1;
#X connect 29 0 10 1;
#X restore 124 247 pd set_seq_min_max_LEDs;
#N canvas -8 -8 1600 817 set_seq_step_LEDs 0;
#X obj 137 206 text get sequence;
#X msg 110 73 32;
#X obj 110 94 until;
#X msg 110 115 1;
#X obj 110 136 +;
#X obj 110 157 mod 32;
#X obj 110 178 t f f;
#X obj 137 229 list split 1;
#X obj 137 271 +, f 6;
#X obj 137 292 sel 0 1 2;
#X obj 110 445 list;
#X obj 112 29 inlet;
#X obj 110 499 outlet;
#N canvas 0 50 450 300 1_if_default_step_value 0;
#X obj 90 35 inlet;
#X obj 90 56 unpack f f f f f, f 32;
#X obj 90 77 != -1;
#X obj 137 77 != -1;
#X obj 184 77 != 11;
#X obj 279 77 != -1;
#X obj 231 98 +, f 8;
#X obj 135 98 +, f 8;
#X obj 135 121 +, f 8;
#X obj 90 153 +, f 8;
#X obj 90 195 outlet;
#X obj 90 174 != 0;
#X obj 231 77 != 0;
#X connect 0 0 1 0;
#X connect 1 0 2 0;
#X connect 1 1 3 0;
#X connect 1 2 4 0;
#X connect 1 3 12 0;
#X connect 1 4 5 0;
#X connect 2 0 9 0;
#X connect 3 0 7 0;
#X connect 4 0 7 1;
#X connect 5 0 6 1;
#X connect 6 0 8 1;
#X connect 7 0 8 0;
#X connect 8 0 9 1;
#X connect 9 0 11 0;
#X connect 11 0 10 0;
#X connect 12 0 6 0;
#X restore 171 250 pd 1_if_default_step_value;
#X obj 137 250 != 0;
#X floatatom 201 271 5 0 0 0 - - -;
#X text 188 410 Step hue;
#X msg 137 316 255 -127;
#X msg 172 368 255 0;
#X msg 154 338 666 0;
#X connect 0 0 7 0;
#X connect 1 0 2 0;
#X connect 2 0 3 0;
#X connect 3 0 4 0;
#X connect 4 0 5 0;
#X connect 5 0 4 1;
#X connect 5 0 6 0;
#X connect 6 0 10 0;
#X connect 6 1 0 0;
#X connect 7 0 14 0;
#X connect 7 1 13 0;
#X connect 8 0 9 0;
#X connect 9 0 17 0;
#X connect 9 1 19 0;
#X connect 9 2 18 0;
#X connect 10 0 12 0;
#X connect 11 0 1 0;
#X connect 13 0 8 1;
#X connect 13 0 15 0;
#X connect 14 0 8 0;
#X connect 17 0 10 1;
#X connect 18 0 10 1;
#X connect 19 0 10 1;
#X restore 149 221 pd set_seq_step_LEDs;
#X obj 74 164 t b f b b, f 13;
#N canvas 80 103 808 300 set_all_LEDs_at_once 0;
#X obj 65 37 inlet;
#X obj 267 40 inlet;
#X obj 533 107 text define -k seq_LEDs;
#A set 350 -30 \; 255 -127 \; 255 -127 \; 255 -127 \; 255 -127 \; 255
-127 \; 255 -127 \; 255 -127 \; 255 -127 \; 255 -127 \; 255 -127 \;
255 -127 \; 255 -127 \; 255 -127 \; 255 -127 \; 255 -127 \; 255 -127
\; 255 -127 \; 255 -127 \; 255 -127 \; 255 -127 \; 255 -127 \; 255
-127 \; 255 -127 \; 255 -127 \; 255 -127 \; 255 -127 \; 255 -127 \;
255 -127 \; 255 -127 \; 255 -127 \; 255 -127 \; 130 -90 \; -127 250
\; -127 250 \; -127 250 \; -127 250 \; -127 250 \; -127 250 \; -127
250 \; -127 250 \; -127 250 \; -127 250 \; -127 250 \; -127 250 \;
-127 250 \; -127 250 \; -127 250 \; -127 250 \; -127 250 \; -127 250
\; -127 250 \; -127 250 \; -127 250 \; -127 250 \; -127 250 \; -127
250 \; -127 250 \; -127 250 \; -127 250 \; -127 250 \; -127 250 \;
-127 250 \; -127 250 \; -127 250 \; -127 250 \; -127 250 \; -127 250
\; -127 250 \; -127 250 \; -127 250 \; -127 250 \; -127 250 \; -127
250 \; -127 250 \; -127 250 \; -127 250 \; -127 250 \; -127 250 \;
-127 250 \; -127 250 \; -127 250 \; -127 250 \; -127 250 \; -127 250
\; -127 250 \; -127 250 \; -127 250 \; -127 250 \; -127 250 \; -127
250 \; -127 250 \; -127 250 \; -127 250 \; -127 250 \; -127 250 \;
-127 250 \; -127 250 \; -127 250 \; -127 250 \; -127 250 \; -127 250
\; -127 250 \; -127 250 \; -127 250 \; -127 250 \; -127 250 \; -127
250 \; -127 250 \; -127 250 \; -127 250 \; -127 250 \; -127 250 \;
-127 250 \; -127 250 \; -127 250 \; -127 250 \; -127 250 \; -127 250
\; -127 250 \; -127 250 \; -127 250 \; -127 250 \; -127 250 \; -127
250 \; -127 250 \; -127 250 \; -127 250 \; -127 250 \; -127 250 \;
-127 250 \; -127 250 \; -127 250 \; -127 250 \; -127 250 \; -127 250
\; -127 250 \; -127 250 \; -127 250 \; -127 250 \; -127 250 \; -127
250 \; -127 250 \; -127 250 \; -127 250 \; -127 250 \; -127 250 \;
-127 250 \; -127 250 \; -127 250 \; -127 250 \; -127 250 \; -127 250
\; -127 250 \; -127 250 \; -127 250 \; -127 250 \; -127 250 \; -127
250 \; -127 250 \; -127 250 \; -127 250 \; -127 250 \; -127 250 \;
-127 250 \; -127 250 \; -127 250 \; -127 250 \; -127 250 \; -127 250
\; -127 250 \; -127 250 \; -127 250 \; -127 250 \; -127 250 \; -127
250 \; -127 250 \; -127 250 \; -127 250 \; -127 250 \; -127 250 \;
-127 250 \; -127 250 \; -127 250 \; -127 250 \; -127 250 \; -127 250
\; -127 250 \; -127 250 \; -127 250 \; -127 250 \; -127 250 \; -127
250 \; -127 250 \; -127 250 \; -127 250 \; -127 250 \; -127 250 \;
-127 250 \; -127 250 \; 0 250 \; -127 250 \; -127 250 \; -127 250 \;
-127 250 \; -127 250 \; -127 250 \; -127 250 \; -127 250 \; -127 250
\; -127 250 \; -127 250 \; -127 250 \; -127 250 \; -127 250 \; -127
250 \; -127 250 \; -127 250 \; -127 250 \; -127 250 \; -127 250 \;
-127 250 \; -127 250 \; -127 250 \; -127 250 \; -127 250 \; -127 250
\; -127 250 \; -127 250 \; -127 250 \; -127 250 \; -127 250 \; -127
250 \; -127 250 \; -127 250 \; -127 250 \; -127 250 \; -127 250 \;
-127 250 \; -127 250 \; -127 250 \; -127 250 \; -127 250 \; -127 250
\; -127 250 \; -127 250 \; -127 250 \; -127 250 \; -127 250 \; -127
250 \; -127 250 \; -127 250 \; -127 250 \; -127 250 \; -127 250 \;
-127 250 \;;
#X obj 476 64 text set seq_LEDs;
#X msg 509 39 32;
#X msg 477 39 0 0;
#X obj 267 159 text set seq_LEDs;
#X msg 267 61 \$2 \$3 \$1;
#X obj 92 194 text get seq_LEDs;
#X msg 65 58 32;
#X obj 65 83 until;
#X msg 65 104 1;
#X obj 65 125 +;
#X obj 65 146 mod 32;
#X obj 65 167 t f f;
#X obj 65 229 list;
#X obj 65 250 outlet;
#X obj 267 91 list split 2;
#X connect 0 0 9 0;
#X connect 1 0 7 0;
#X connect 4 0 3 1;
#X connect 5 0 3 0;
#X connect 7 0 17 0;
#X connect 8 0 15 1;
#X connect 9 0 10 0;
#X connect 10 0 11 0;
#X connect 11 0 12 0;
#X connect 12 0 13 0;
#X connect 13 0 12 1;
#X connect 13 0 14 0;
#X connect 14 0 15 0;
#X connect 14 1 8 0;
#X connect 15 0 16 0;
#X connect 17 0 6 0;
#X connect 17 1 6 1;
#X restore 74 358 pd set_all_LEDs_at_once;
#X obj 686 1017 r max_notelength;
#X obj 685 1036 r min_notelength;
#X obj 681 733 sel 1;
#X obj 597 549 t f f;
#X obj 614 571 s LED_TCondition_(Sequencer);
#X obj 654 798 s LED_Flam_(Sequencer);
#X obj 654 713 t f f;
#X obj 156 993 text get pitch_sequencer;
#X obj 195 1035 list split 1;
#X obj 53 1145 s LED_stored_pitch_seq_step;
#X obj 156 1013 route 0;
#X obj 92 872 t b;
#X msg 92 893 1;
#X obj 92 914 +;
#X obj 122 914 mod 32;
#X obj 203 949 loadbang;
#X msg 203 970 -1;
#X obj 92 946 - 1;
#X obj 92 967 t f f;
#X obj 53 1123 f;
#X obj 229 1056 t b l;
#X msg 99 282 \$1 350 -30;
#X obj 405 1253 clip 50 1e+012;
#X obj 515 897 +;
#X obj 515 877 *;
#X obj 560 857 r max_notelength;
#X obj 559 876 r min_notelength;
#X obj 515 830 - 1;
#X obj 515 855 / 126;
#N canvas -8 -8 1600 817 pitch_quantizer 0;
#X obj 229 181 t l;
#X obj 302 323 loadbang;
#X obj 229 366 array get pitch_quantizer;
#X msg 302 344 1;
#X obj 229 387 sel 0 1, f 25;
#X obj 229 475 text get pitch_quantizer_order;
#X obj 229 451 float, f 7;
#X obj 286 451 + 1;
#X obj 472 517 f;
#X obj 472 588 + 0, f 24;
#X msg 616 247 0;
#X obj 229 223 t f f f b, f 65;
#X obj 229 266 f;
#X obj 302 245 t b f f;
#X obj 229 287 +;
#X obj 240 66 inlet;
#X obj 472 710 outlet;
#X text 515 711 MIDI Note List;
#X text 276 66 MIDI Note List (to quantize);
#X obj 229 202 unpack f f f, f 141;
#X obj 472 609 pack f f f, f 59;
#X obj 229 308 mod 12;
#X connect 0 0 19 0;
#X connect 1 0 3 0;
#X connect 2 0 4 0;
#X connect 3 0 2 1;
#X connect 4 0 6 0;
#X connect 4 1 8 0;
#X connect 5 0 13 0;
#X connect 6 0 7 0;
#X connect 6 0 5 0;
#X connect 7 0 6 1;
#X connect 8 0 9 0;
#X connect 9 0 20 0;
#X connect 10 0 9 1;
#X connect 10 0 6 1;
#X connect 10 0 14 1;
#X connect 11 0 12 0;
#X connect 11 2 8 1;
#X connect 11 3 10 0;
#X connect 12 0 14 0;
#X connect 13 0 12 0;
#X connect 13 1 14 1;
#X connect 13 2 9 1;
#X connect 14 0 21 0;
#X connect 15 0 0 0;
#X connect 19 0 11 0;
#X connect 19 1 20 1;
#X connect 19 2 20 2;
#X connect 20 0 16 0;
#X connect 21 0 2 0;
#X restore 338 1147 pd pitch_quantizer;
#N canvas 0 50 450 300 pitch_offsetter 0;
#X obj 99 47 inlet;
#X obj 99 68 unpack f f f;
#X obj 99 129 +;
#X obj 114 109 r pitch_offset;
#X obj 99 150 pack f f f;
#X obj 99 192 outlet;
#X connect 0 0 1 0;
#X connect 1 0 2 0;
#X connect 1 1 4 1;
#X connect 1 2 4 2;
#X connect 2 0 4 0;
#X connect 3 0 2 1;
#X connect 4 0 5 0;
#X restore 338 1181 pd pitch_offsetter;
#X connect 0 0 8 0;
#X connect 2 0 33 0;
#X connect 8 0 23 0;
#X connect 9 0 10 0;
#X connect 10 0 11 0;
#X connect 10 1 12 0;
#X connect 10 3 81 0;
#X connect 11 0 46 0;
#X connect 11 1 44 1;
#X connect 12 0 47 0;
#X connect 12 1 102 0;
#X connect 13 0 14 0;
#X connect 13 1 9 0;
#X connect 14 1 40 0;
#X connect 15 0 17 0;
#X connect 17 0 19 0;
#X connect 17 1 18 0;
#X connect 18 0 78 0;
#X connect 19 0 20 0;
#X connect 20 0 21 0;
#X connect 21 0 22 1;
#X connect 22 0 13 0;
#X connect 23 0 22 0;
#X connect 23 1 37 0;
#X connect 23 2 15 0;
#X connect 24 0 26 0;
#X connect 24 1 25 0;
#X connect 25 0 28 0;
#X connect 26 0 27 0;
#X connect 27 0 29 0;
#X connect 28 0 29 1;
#X connect 28 1 32 1;
#X connect 29 0 30 0;
#X connect 30 0 31 0;
#X connect 31 0 32 0;
#X connect 32 0 34 0;
#X connect 33 0 73 0;
#X connect 33 1 0 0;
#X connect 33 2 34 1;
#X connect 35 0 36 0;
#X connect 36 0 34 2;
#X connect 37 0 24 0;
#X connect 39 0 42 0;
#X connect 40 0 42 0;
#X connect 40 1 39 1;
#X connect 41 0 39 0;
#X connect 42 0 59 0;
#X connect 43 0 45 0;
#X connect 44 0 104 0;
#X connect 45 0 41 1;
#X connect 48 0 50 0;
#X connect 49 0 51 0;
#X connect 50 0 56 0;
#X connect 51 0 52 0;
#X connect 52 0 54 0;
#X connect 53 0 44 2;
#X connect 54 0 53 0;
#X connect 55 0 44 0;
#X connect 56 0 57 0;
#X connect 57 0 58 0;
#X connect 58 0 44 1;
#X connect 59 0 86 0;
#X connect 59 1 55 0;
#X connect 60 0 62 0;
#X connect 60 1 62 1;
#X connect 61 0 60 0;
#X connect 61 1 60 1;
#X connect 61 2 97 0;
#X connect 63 0 61 0;
#X connect 63 1 66 0;
#X connect 65 0 67 0;
#X connect 65 1 67 1;
#X connect 66 0 65 0;
#X connect 66 1 65 1;
#X connect 66 2 65 2;
#X connect 67 0 64 0;
#X connect 71 0 74 1;
#X connect 72 0 74 1;
#X connect 73 0 74 0;
#X connect 73 1 96 0;
#X connect 73 2 71 0;
#X connect 73 3 72 0;
#X connect 74 0 1 0;
#X connect 75 0 54 1;
#X connect 76 0 53 1;
#X connect 77 0 41 0;
#X connect 78 0 79 0;
#X connect 78 1 21 1;
#X connect 81 0 80 0;
#X connect 81 1 77 0;
#X connect 82 0 85 0;
#X connect 83 1 95 0;
#X connect 85 0 86 0;
#X connect 85 1 83 0;
#X connect 86 0 87 0;
#X connect 87 0 88 0;
#X connect 88 0 89 0;
#X connect 88 0 92 0;
#X connect 89 0 88 1;
#X connect 90 0 91 0;
#X connect 91 0 82 1;
#X connect 92 0 93 0;
#X connect 93 0 82 0;
#X connect 93 1 94 1;
#X connect 94 0 84 0;
#X connect 95 0 94 0;
#X connect 95 1 55 0;
#X connect 96 0 74 1;
#X connect 97 0 60 2;
#X connect 98 0 44 2;
#X connect 99 0 98 0;
#X connect 100 0 99 1;
#X connect 101 0 98 1;
#X connect 102 0 103 0;
#X connect 103 0 99 0;
#X connect 104 0 105 0;
#X connect 105 0 63 0;
#X restore 31 304 pd query_steps;
#X text 28 574 lower Modes: Triggered Notes \, Play Notes \, Record
Notes \, Transpose (0) / Step-Values (1) / Pitch-Sequencer (2), f
110;
#X obj 230 647 r LED_num_hue_bright_(Played_Notes);
#X obj 50 647 r LED_num_hue_bright_(keys);
#X obj 450 647 r LED_num_hue_bright_(Triggered_Notes);
#N canvas -8 -8 1600 817 LED_Played_Notes 0;
#X obj 341 114 array set mapkey;
#X msg 387 88 0;
#X obj 341 138 array define -k -yrange 33 63 mapkey 27;
#A 0 48 33 49 34 50 51 36 52 37 53 38 54 55 40 56 41 57 58 43 59 44
60 45 61 62 47 63;
#X msg 341 44 48 33 49 34 50 51 36 52 37 53 38 54 55 40 56 41 57 58
43 59 44 60 45 61 62 47 63, f 31;
#X obj 43 19 inlet;
#N canvas -8 -8 1600 817 keyboard_inactive_colours 0;
#X text 111 282 num 0 31;
#X text 111 292 hue 0 - 768;
#X text 111 302 bright -127 - 127;
#X obj 84 85 loadbang;
#X msg 84 111 32;
#X obj 84 132 until;
#X msg 84 153 1;
#X obj 84 174 +;
#X obj 120 174 mod 32;
#X obj 84 195 - 1;
#X obj 84 224 text get key_colours;
#X obj 215 100 inlet;
#X obj 215 167 text search key_colours 0;
#X obj 84 261 s LED_num_hue_bright_(keys);
#X connect 3 0 4 0;
#X connect 4 0 5 0;
#X connect 5 0 6 0;
#X connect 6 0 7 0;
#X connect 7 0 8 0;
#X connect 7 0 9 0;
#X connect 8 0 7 1;
#X connect 9 0 10 0;
#X connect 10 0 13 0;
#X connect 11 0 12 0;
#X connect 12 0 10 0;
#X restore 43 452 pd keyboard_inactive_colours;
#X obj 82 331 pack f 0, f 9;
#X obj 43 182 pack f f, f 21;
#X msg 43 203 \$2 \$1;
#X obj 43 224 route 0;
#X msg 82 243 \$2;
#X msg 82 362 \$1 100 0;
#X obj 43 152 array get mapkey;
#X obj 89 110 loadbang;
#X msg 89 131 1;
#X obj 43 128 - 48;
#X obj 82 398 s LED_num_hue_bright_(Played_Notes);
#X msg 445 387 87 \, 88 \, 90 \, 91 \, 92 \, 94 \, 95 \, 97 \, 98 \,
99 \, 101;
#X msg 719 387 102 \, 103 \, 104 \, 105 \, 106 \, 107 \, 108 \, 109
\, 110 \, 111 \, 112 \, 113 \, 114 \, 115 \, 116 \, 117, f 33;
#X obj 445 514 - 54;
#X obj 445 337 t b b;
#X obj 719 337 t b b;
#X msg 472 358 0;
#X msg 746 359 127;
#X obj 426 196 bng 15 250 50 0 empty empty empty 17 7 0 10 -262144
-1 -1;
#X obj 445 316 t b b b, f 92;
#X obj 994 337 t b b;
#X msg 1021 359 -127;
#X msg 994 387 86 \, 89 \, 93 \, 96 \, 100, f 33;
#X obj 445 535 pack f 640 f;
#X obj 627 565 text define -k key_colours;
#A set 32 640 -127 \; 35 640 -127 \; 39 640 -127 \; 42 640 -127 \;
46 640 -127 \; 48 640 127 \; 49 640 127 \; 50 640 127 \; 51 640 127
\; 52 640 127 \; 53 640 127 \; 54 640 127 \; 55 222 0 \; 56 640 127
\; 57 640 127 \; 58 640 127 \; 59 640 127 \; 60 640 127 \; 61 640 127
\; 62 640 127 \; 63 640 127 \; 33 640 0 \; 34 640 0 \; 36 640 0 \;
37 640 0 \; 38 640 0 \; 40 640 0 \; 41 640 0 \; 43 640 0 \; 44 640
0 \; 45 640 0 \; 47 640 0 \;;
#X obj 445 636 text set key_colours;
#X msg 484 605 1e+015;
#X msg 465 247 -1;
#X obj 465 268 text delete key_colours;
#X obj 484 578 loadbang;
#X obj 1286 77 r held_step_pitches;
#N canvas 0 50 450 300 list_serializer 0;
#X obj 110 111 until;
#X obj 123 194 list store;
#X obj 136 78 t b b l;
#X obj 110 136 f;
#X obj 148 137 + 1;
#X msg 162 111 0, f 2;
#X msg 109 165 get \$1 1;
#X obj 139 42 inlet;
#X obj 123 215 outlet;
#X connect 0 0 3 0;
#X connect 1 0 8 0;
#X connect 1 1 0 1;
#X connect 2 0 0 0;
#X connect 2 1 5 0;
#X connect 2 2 1 1;
#X connect 3 0 4 0;
#X connect 3 0 6 0;
#X connect 4 0 3 1;
#X connect 5 0 3 1;
#X connect 6 0 1 0;
#X connect 7 0 2 0;
#X restore 1358 179 pd list_serializer;
#X obj 1027 118 r reset_keyboard_colours;
#X obj 1286 129 route -1;
#X obj 147 593 r keyboard_octave;
#X obj 1385 429 array get mapkey;
#X obj 1431 387 loadbang;
#X msg 1431 408 1;
#X obj 1385 387 - 48;
#X obj 1403 226 r keyboard_octave;
#X obj 1403 287 t f f;
#X obj 1430 309 + 27;
#X obj 1358 311 moses 48;
#X obj 1385 347 moses 75;
#X obj 1403 267 + 48;
#X obj 1403 247 t f f, f 10;
#X obj 1460 309 * -1;
#X obj 1385 368 +, f 14;
#X obj 426 216 t b b b;
#N canvas 0 50 450 300 reset_keyboard_colours 0;
#X msg 65 84 32;
#X obj 65 105 until;
#X msg 65 126 1;
#X obj 65 147 +;
#X obj 101 147 mod 32;
#X obj 65 168 - 1;
#X obj 65 197 text get key_colours;
#X obj 65 234 s LED_num_hue_bright_(keys);
#X obj 65 58 t b;
#X obj 65 24 inlet;
#X connect 0 0 1 0;
#X connect 1 0 2 0;
#X connect 2 0 3 0;
#X connect 3 0 4 0;
#X connect 3 0 5 0;
#X connect 4 0 3 1;
#X connect 5 0 6 0;
#X connect 6 0 7 0;
#X connect 8 0 0 0;
#X connect 9 0 8 0;
#X restore 297 726 pd reset_keyboard_colours;
#X obj 1385 568 text set key_colours;
#X obj 1424 473 text search key_colours 0;
#X obj 1385 450 t f f, f 7;
#X obj 1331 152 t b l;
#X msg 1385 501 \$1 222 0;
#X obj 43 40 unpack f f, f 21;
#X obj 1268 728 ctlout 52 1;
#X msg 1268 704 2;
#X text 1264 747 pitch seq button;
#X obj 1045 182 ctlout 52 1;
#X text 1041 201 pitch seq button;
#X msg 1045 158 0;
#N canvas 0 50 450 300 new_keyboard_colours 0;
#X msg 65 84 32;
#X obj 65 105 until;
#X msg 65 126 1;
#X obj 65 147 +;
#X obj 101 147 mod 32;
#X obj 65 168 - 1;
#X obj 65 197 text get key_colours;
#X obj 65 234 s LED_num_hue_bright_(keys);
#X obj 65 58 t b;
#X obj 65 24 inlet;
#X connect 0 0 1 0;
#X connect 1 0 2 0;
#X connect 2 0 3 0;
#X connect 3 0 4 0;
#X connect 3 0 5 0;
#X connect 4 0 3 1;
#X connect 5 0 6 0;
#X connect 6 0 7 0;
#X connect 8 0 0 0;
#X connect 9 0 8 0;
#X restore 1331 672 pd new_keyboard_colours;
#X connect 1 0 0 1;
#X connect 3 0 0 0;
#X connect 4 0 61 0;
#X connect 6 0 11 0;
#X connect 7 0 8 0;
#X connect 8 0 9 0;
#X connect 9 0 5 0;
#X connect 9 1 10 0;
#X connect 10 0 6 0;
#X connect 11 0 16 0;
#X connect 12 0 7 0;
#X connect 13 0 14 0;
#X connect 14 0 12 1;
#X connect 15 0 12 0;
#X connect 17 0 19 0;
#X connect 18 0 19 0;
#X connect 19 0 29 0;
#X connect 20 0 17 0;
#X connect 20 1 22 0;
#X connect 21 0 18 0;
#X connect 21 1 23 0;
#X connect 22 0 29 2;
#X connect 23 0 29 2;
#X connect 24 0 54 0;
#X connect 25 0 20 0;
#X connect 25 1 21 0;
#X connect 25 2 26 0;
#X connect 26 0 28 0;
#X connect 26 1 27 0;
#X connect 27 0 29 2;
#X connect 28 0 19 0;
#X connect 29 0 31 0;
#X connect 32 0 31 1;
#X connect 33 0 34 0;
#X connect 35 0 32 0;
#X connect 36 0 39 0;
#X connect 37 0 48 0;
#X connect 38 0 54 0;
#X connect 39 0 63 0;
#X connect 39 1 59 0;
#X connect 40 0 55 0;
#X connect 41 0 58 0;
#X connect 42 0 43 0;
#X connect 43 0 41 1;
#X connect 44 0 41 0;
#X connect 45 0 51 0;
#X connect 46 0 48 1;
#X connect 46 1 47 0;
#X connect 47 0 49 1;
#X connect 48 1 49 0;
#X connect 49 0 53 0;
#X connect 50 0 46 0;
#X connect 51 0 50 0;
#X connect 51 1 52 0;
#X connect 52 0 53 1;
#X connect 53 0 44 0;
#X connect 54 0 55 0;
#X connect 54 1 25 0;
#X connect 54 2 33 0;
#X connect 57 0 56 1;
#X connect 58 0 60 0;
#X connect 58 1 57 0;
#X connect 59 0 68 0;
#X connect 59 1 37 0;
#X connect 60 0 56 0;
#X connect 61 0 15 0;
#X connect 61 1 7 1;
#X connect 63 0 62 0;
#X connect 67 0 65 0;
#X restore 1085 285 pd LED_Played_Notes;
#N canvas -8 -8 1600 817 MIDI_Out 0;
#X obj 49 51 r MIDI_Out;
#X obj 262 253 noteout, f 12;
#X floatatom 553 333 5 0 0 0 - - -;
#X obj 554 101 loadbang;
#X msg 554 122 17;
#X obj 49 72 t l l, f 36;
#X obj 49 193 unpack f f;
#X obj 49 214 mod 12;
#X obj 49 235 pack f f;
#X obj 49 256 s played_pitch_classes;
#X obj 262 158 clone jay_set_midi_chanel 127;
#X obj 553 353 v midi_chanel;
#X obj 262 212 unpack f f f;
#X text 593 333 MIDI Chanel;
#X obj 770 138 notein 1;
#X obj 770 159 stripnote;
#X obj 770 180 sel 26;
#X obj 819 201 % 4;
#X obj 770 201 f;
#X obj 794 201 + 1;
#X obj 770 360 ctlout 27 1;
#X obj 770 222 t f f, f 14;
#X obj 851 249 + 17;
#X connect 0 0 5 0;
#X connect 2 0 11 0;
#X connect 3 0 4 0;
#X connect 4 0 2 0;
#X connect 5 0 6 0;
#X connect 5 1 10 0;
#X connect 6 0 7 0;
#X connect 6 1 8 1;
#X connect 7 0 8 0;
#X connect 8 0 9 0;
#X connect 10 0 12 0;
#X connect 12 0 1 0;
#X connect 12 1 1 1;
#X connect 12 2 1 2;
#X connect 14 0 15 0;
#X connect 14 1 15 1;
#X connect 15 0 16 0;
#X connect 16 0 18 0;
#X connect 17 0 18 1;
#X connect 18 0 19 0;
#X connect 18 0 21 0;
#X connect 19 0 17 0;
#X connect 21 0 20 0;
#X connect 21 1 22 0;
#X connect 22 0 2 0;
#X restore 31 325 pd MIDI_Out;
#X obj 417 599 r LED_num_hue_bright_(Step-Velues);
#X floatatom 230 220 5 0 0 0 - - -;
#X obj 230 240 s min_notelength;
#X floatatom 340 220 5 0 0 0 - - -;
#X obj 340 240 s max_notelength;
#N canvas 0 50 450 300 Sequencer_Buttons 0;
#X obj 173 54 t f f f, f 13;
#X obj 212 95 +;
#X obj 212 114 == 2;
#X obj 173 135 spigot;
#X obj 173 33 notein 1;
#X obj 212 75 >= 54;
#X obj 250 75 <= 85;
#X obj 173 156 - 54;
#X text 62 155 sequencer buttons;
#X obj 173 223 pack f f;
#X obj 124 252 outlet;
#X obj 278 248 outlet;
#X connect 0 0 3 0;
#X connect 0 1 5 0;
#X connect 0 2 6 0;
#X connect 1 0 2 0;
#X connect 2 0 3 1;
#X connect 3 0 7 0;
#X connect 4 0 0 0;
#X connect 4 1 9 1;
#X connect 5 0 1 0;
#X connect 6 0 1 1;
#X connect 7 0 9 0;
#X connect 7 0 11 0;
#X connect 9 0 10 0;
#X restore 624 277 pd Sequencer_Buttons;
#N canvas 0 50 1304 414 Sequencer_Button_Modifiers 0;
#X obj 112 63 notein 1;
#X obj 112 84 pack f f;
#X text 168 83 modifiers;
#X obj 112 171 t f f;
#X obj 231 171 t f f;
#X obj 112 217 == 0;
#X obj 350 126 sel 127;
#X obj 350 151 tgl 15 0 empty empty empty 17 7 0 10 -262144 -1 -1 0
1;
#N canvas 0 50 450 439 sum 0;
#X obj 76 13 inlet;
#X obj 124 53 inlet;
#X obj 172 103 inlet;
#X obj 76 154 +, f 13;
#X obj 124 74 t b f;
#X obj 172 124 t b f;
#X obj 76 225 +, f 21;
#X obj 77 352 outlet;
#X obj 76 114 f;
#X obj 76 195 f;
#X obj 233 173 inlet;
#X obj 233 194 t b f;
#X obj 77 295 +, f 31;
#X obj 77 265 f;
#X connect 0 0 8 0;
#X connect 1 0 4 0;
#X connect 2 0 5 0;
#X connect 3 0 9 0;
#X connect 4 0 8 0;
#X connect 4 1 3 1;
#X connect 5 0 9 0;
#X connect 5 1 6 1;
#X connect 6 0 13 0;
#X connect 8 0 3 0;
#X connect 9 0 6 0;
#X connect 10 0 11 0;
#X connect 11 0 13 0;
#X connect 11 1 12 1;
#X connect 12 0 7 0;
#X connect 13 0 12 0;
#X restore 112 196 pd sum;
#X f 60;
#X obj 381 255 * 2;
#X obj 381 275 ctlout 52 1;
#X obj 103 282 outlet;
#X obj 153 282 outlet;
#X obj 258 282 outlet;
#X obj 401 302 outlet;
#X text 325 87 Pitch Seq Mode;
#X obj 467 281 outlet;
#X text 446 86 Pitch Quant. Mode;
#X obj 589 171 tgl 15 0 empty empty empty 17 7 0 10 -262144 -1 -1 0
1;
#X obj 588 279 outlet;
#X obj 587 138 sel 127;
#X msg 616 231 0;
#X text 574 87 Pitch Offset Mode;
#X msg 327 237 0;
#X obj 616 211 sel 1;
#X obj 327 216 sel 1;
#X obj 589 191 t f f;
#X obj 350 171 t f f f f;
#X obj 704 167 tgl 15 0 empty empty empty 17 7 0 10 -262144 -1 -1 0
1;
#X obj 999 251 * 3;
#X obj 762 129 loadbang;
#X msg 762 150 0;
#X obj 999 297 ctlout 53 1;
#X obj 112 105 route 36 37 52 33 51 53, f 120;
#X text 694 87 Record;
#X obj 704 139 sel 127;
#X obj 704 187 t f f f;
#X obj 723 214 sel 1;
#X msg 723 235 0;
#X obj 704 292 outlet;
#X obj 469 141 t f f f;
#X obj 509 330 s pitch_quant_on_off;
#X connect 0 0 1 0;
#X connect 0 1 1 1;
#X connect 1 0 33 0;
#X connect 3 0 8 0;
#X connect 3 1 12 0;
#X connect 4 0 8 1;
#X connect 4 1 13 0;
#X connect 5 0 11 0;
#X connect 6 0 7 0;
#X connect 7 0 27 0;
#X connect 8 0 5 0;
#X connect 9 0 10 0;
#X connect 18 0 26 0;
#X connect 20 0 18 0;
#X connect 21 0 7 0;
#X connect 23 0 18 0;
#X connect 24 0 21 0;
#X connect 25 0 23 0;
#X connect 26 0 19 0;
#X connect 26 1 24 0;
#X connect 27 0 25 0;
#X connect 27 1 8 2;
#X connect 27 2 9 0;
#X connect 27 3 14 0;
#X connect 28 0 36 0;
#X connect 29 0 32 0;
#X connect 30 0 31 0;
#X connect 31 0 28 0;
#X connect 33 0 3 0;
#X connect 33 1 4 0;
#X connect 33 2 6 0;
#X connect 33 3 40 0;
#X connect 33 4 20 0;
#X connect 33 5 35 0;
#X connect 35 0 28 0;
#X connect 36 0 39 0;
#X connect 36 1 37 0;
#X connect 36 2 29 0;
#X connect 37 0 38 0;
#X connect 38 0 18 0;
#X connect 40 0 16 0;
#X connect 40 1 8 3;
#X connect 40 2 41 0;
#X restore 669 102 pd Sequencer_Button_Modifiers;
#X f 97;
#X text 756 418 count start;
#X text 866 419 count range;
#X msg 124 219 \; pd dsp 1 \;;
#X obj 124 198 loadbang;
#X obj 1502 703 r LED_Flam_(Step-Velues);
#X obj 1092 697 r LED_TCondition_(Step-Velues);
#N canvas 0 50 450 300 gate4 0;
#X obj 37 32 inlet;
#X obj 382 30 inlet;
#X obj 37 180 spigot;
#X obj 70 152 == 0;
#X obj 37 236 outlet;
#X obj 127 32 inlet;
#X obj 127 180 spigot;
#X obj 217 32 inlet;
#X obj 217 180 spigot;
#X obj 307 32 inlet;
#X obj 307 180 spigot;
#X obj 160 152 == 1;
#X obj 250 152 == 2;
#X obj 340 152 == 3;
#X connect 0 0 2 0;
#X connect 1 0 3 0;
#X connect 1 0 13 0;
#X connect 1 0 12 0;
#X connect 1 0 11 0;
#X connect 2 0 4 0;
#X connect 3 0 2 1;
#X connect 5 0 6 0;
#X connect 6 0 4 0;
#X connect 7 0 8 0;
#X connect 8 0 4 0;
#X connect 9 0 10 0;
#X connect 10 0 4 0;
#X connect 11 0 6 1;
#X connect 12 0 8 1;
#X connect 13 0 10 1;
#X restore 938 730 pd gate4;
#X f 52;
#X obj 1300 622 route 1 3;
#N canvas 0 50 450 300 gate4 0;
#X obj 37 32 inlet;
#X obj 382 30 inlet;
#X obj 37 180 spigot;
#X obj 70 152 == 0;
#X obj 37 236 outlet;
#X obj 127 32 inlet;
#X obj 127 180 spigot;
#X obj 217 32 inlet;
#X obj 217 180 spigot;
#X obj 307 32 inlet;
#X obj 307 180 spigot;
#X obj 160 152 == 1;
#X obj 250 152 == 2;
#X obj 340 152 == 3;
#X connect 0 0 2 0;
#X connect 1 0 3 0;
#X connect 1 0 13 0;
#X connect 1 0 12 0;
#X connect 1 0 11 0;
#X connect 2 0 4 0;
#X connect 3 0 2 1;
#X connect 5 0 6 0;
#X connect 6 0 4 0;
#X connect 7 0 8 0;
#X connect 8 0 4 0;
#X connect 9 0 10 0;
#X connect 10 0 4 0;
#X connect 11 0 6 1;
#X connect 12 0 8 1;
#X connect 13 0 10 1;
#X restore 1348 730 pd gate4;
#X f 52;
#X obj 1348 772 ctlout 49 1;
#X obj 938 751 t f b, f 7;
#X msg 977 772 44 \, 45 \, 46 \, 47 \, 48;
#X msg 977 793 0 \$1;
#X obj 938 814 unpack;
#X obj 938 835 ctlout 1;
#X obj 938 772 + 43;
#X obj 902 697 r LED_TCondition_(Sequencer);
#X obj 1312 703 r LED_Flam_(Sequencer);
#X obj 1348 752 * 2;
#X msg 938 793 4 \$1;
#X text 1101 365 (keep);
#X obj 624 298 t l l l;
#X obj 958 277 t f f;
#X obj 627 599 r LED_num_hue_bright_(Pitch-Sequencer);
#X obj 1559 96 ctlin 9 26;
#X obj 1559 117 clip 64 127;
#X obj 1559 138 - 64;
#X obj 1559 159 / 63;
#X obj 1251 588 t f f f, f 17;
#X obj 1380 622 s upper_mode;
#X obj 733 522 s reset_keyboard_colours;
#X obj 230 179 r step_length;
#X obj 230 200 / 4;
#X obj 340 179 r step_length;
#N canvas 0 50 639 300 gate5 0;
#X obj 37 32 inlet;
#X obj 542 30 inlet;
#X obj 37 180 spigot;
#X obj 70 152 == 0;
#X obj 37 236 outlet;
#X obj 127 32 inlet;
#X obj 127 180 spigot;
#X obj 217 32 inlet;
#X obj 217 180 spigot;
#X obj 307 32 inlet;
#X obj 307 180 spigot;
#X obj 250 152 == 2;
#X obj 340 152 == 3;
#X obj 397 32 inlet;
#X obj 397 180 spigot;
#X obj 430 152 == 4;
#X obj 160 152 != 2;
#X connect 0 0 2 0;
#X connect 1 0 3 0;
#X connect 1 0 12 0;
#X connect 1 0 11 0;
#X connect 1 0 15 0;
#X connect 1 0 16 0;
#X connect 2 0 4 0;
#X connect 3 0 2 1;
#X connect 5 0 6 0;
#X connect 6 0 4 0;
#X connect 7 0 8 0;
#X connect 8 0 4 0;
#X connect 9 0 10 0;
#X connect 10 0 4 0;
#X connect 11 0 8 1;
#X connect 12 0 10 1;
#X connect 13 0 14 0;
#X connect 14 0 4 0;
#X connect 15 0 14 1;
#X connect 16 0 6 1;
#X restore 32 623 pd gate5;
#X f 166;
#X obj 867 599 r LED_num_hue_bright_(Pitch-Quantizer);
#X text 49 353 special color: hue 998 (bright irrelevant): dark white
;
#N canvas -8 -8 1600 817 set_pitch_quantizer 0;
#X obj 778 90 array set pitch_quantizer;
#X msg 947 62 0;
#X obj 777 30 array define -k -yrange 0 1 pitch_quantizer 12;
#A 0 1 1 1 1 1 1 1 1 1 1 1 1;
#X msg 778 62 1 1 1 1 1 1 1 1 1 1 1 1;
#X msg 778 141 +1 -2 +3 -4 +5 -6 +7 -8 +9 -10 +11;
#X obj 778 123 text define -k pitch_quantizer_order;
#A set 1 \; -2 \; 3 \; -4 \; 5 \; -6 \; 7 \; -8 \; 9 \; -10 \; 11 \;
-12 \; 13 \; -14 \; 15 \; -16 \; 17 \; -18 \; 19 \; -20 \; 21 \; -22
\; 23 \; -24 \;;
#X msg 589 70 1 0 1 0 1 0 1 0 1 0 1 0;
#X text 368 25 MIDI Note List (set quentizer);
#X obj 336 155 unpack f f;
#X obj 336 176 stripnote;
#X text 172 216 Bang = update LEDs;
#X obj 383 227 sel 74 75 60 76 61 77 78 63 79 64 80 65 81, f 106;
#X obj 383 597 array set pitch_quantizer;
#X msg 383 555 1 1 1 1 1 1 1 1 1 1 1 1;
#X obj 465 532 unpack f f;
#X obj 383 532 t b b, f 12;
#X msg 456 576 0;
#X obj 431 252 tgl 15 0 empty empty empty 17 7 0 10 -262144 -1 -1 1
1;
#X obj 90 217 loadbang;
#X msg 90 238 1;
#X msg 431 492 \$1 0;
#X obj 480 252 tgl 15 0 empty empty empty 17 7 0 10 -262144 -1 -1 1
1;
#X msg 480 492 \$1 1;
#X obj 529 252 tgl 15 0 empty empty empty 17 7 0 10 -262144 -1 -1 1
1;
#X obj 577 252 tgl 15 0 empty empty empty 17 7 0 10 -262144 -1 -1 1
1;
#X msg 529 492 \$1 2;
#X msg 577 492 \$1 3;
#X obj 626 252 tgl 15 0 empty empty empty 17 7 0 10 -262144 -1 -1 1
1;
#X obj 675 252 tgl 15 0 empty empty empty 17 7 0 10 -262144 -1 -1 1
1;
#X msg 626 492 \$1 4;
#X msg 675 492 \$1 5;
#X obj 723 252 tgl 15 0 empty empty empty 17 7 0 10 -262144 -1 -1 1
1;
#X obj 772 252 tgl 15 0 empty empty empty 17 7 0 10 -262144 -1 -1 1
1;
#X obj 821 252 tgl 15 0 empty empty empty 17 7 0 10 -262144 -1 -1 1
1;
#X obj 869 252 tgl 15 0 empty empty empty 17 7 0 10 -262144 -1 -1 1
1;
#X obj 918 252 tgl 15 0 empty empty empty 17 7 0 10 -262144 -1 -1 1
1;
#X obj 967 252 tgl 15 0 empty empty empty 17 7 0 10 -262144 -1 -1 1
1;
#X msg 723 492 \$1 6;
#X msg 772 492 \$1 7;
#X msg 821 492 \$1 8;
#X msg 869 492 \$1 9;
#X msg 918 492 \$1 10;
#X msg 967 492 \$1 11;
#X obj 154 904 s LED_num_hue_bright_(Pitch-Quantizer);
#X obj 341 65 inlet;
#X obj 336 135 spigot;
#X obj 308 25 notein 1;
#X obj 336 197 t b f;
#X obj 368 106 == 127;
#X obj 308 46 pack f f;
#X obj 341 86 t f f;
#X obj 284 197 sel 127;
#X obj 284 218 t b b;
#X obj 336 597 t b;
#X msg 154 595 0 \, 1 \, 2 \, 3 \, 4 \, 5 \, 6 \, 7 \, 7 \, 8 \, 9
\, 10 \, 11 \, 12 \, 13 \, 14 \, 15 \, 16 \, 17 \, 18 \, 19 \, 20 \,
21 \, 22 \, 23 \, 24 \, 25 \, 26 \, 27 \, 28 \, 29 \, 30 \, 31, f
24;
#X msg 199 690 \$1 0 -127;
#X obj 336 667 array get pitch_quantizer;
#X msg 336 618 0;
#X obj 409 626 loadbang;
#X msg 409 647 -1;
#X obj 336 688 unpack f f f f f f f f f f f f, f 129;
#X obj 154 660 route 20;
#X msg 154 720 20 130 0;
#X obj 336 795 sel 0 1;
#X msg 336 816 21 998 0;
#X msg 355 836 21 0 127;
#X obj 406 735 sel 0 1;
#X msg 425 776 6 640 0;
#X msg 406 756 6 640 -100;
#X obj 476 795 sel 0 1;
#X obj 546 735 sel 0 1;
#X msg 476 816 22 998 0;
#X msg 495 836 22 0 127;
#X msg 546 756 7 640 -100;
#X msg 565 776 7 640 0;
#X obj 616 795 sel 0 1;
#X obj 686 795 sel 0 1;
#X msg 616 816 23 998 0;
#X msg 635 836 23 0 127;
#X msg 705 836 24 0 127;
#X msg 686 816 24 998 0;
#X obj 756 735 sel 0 1;
#X obj 826 795 sel 0 1;
#X obj 896 735 sel 0 1;
#X msg 756 756 9 640 -100;
#X msg 775 776 9 640 0;
#X msg 826 816 25 998 0;
#X msg 845 836 25 0 127;
#X msg 896 756 10 640 -100;
#X msg 915 776 10 640 0;
#X obj 1036 735 sel 0 1;
#X obj 966 795 sel 0 1;
#X msg 966 816 26 998 0;
#X msg 985 836 26 0 127;
#X obj 1914 307 r played_pitch_classes;
#X obj 1310 385 f;
#X obj 1317 345 t f f, f 7;
#X obj 1310 406 spigot;
#X obj 1356 366 == 0;
#X obj 1317 366 sel 0;
#X obj 1310 427 change;
#X obj 1359 495 f;
#X obj 1366 455 t f f, f 7;
#X obj 1405 476 == 0;
#X obj 1366 476 sel 0;
#X obj 1359 537 change;
#X obj 1408 385 f;
#X obj 1415 345 t f f, f 7;
#X obj 1408 406 spigot;
#X obj 1454 366 == 0;
#X obj 1415 366 sel 0;
#X obj 1408 427 change;
#X obj 1456 495 f;
#X obj 1463 455 t f f, f 7;
#X obj 1502 476 == 0;
#X obj 1463 476 sel 0;
#X obj 1456 537 change;
#X obj 1505 385 f;
#X obj 1512 345 t f f, f 7;
#X obj 1505 406 spigot;
#X obj 1551 366 == 0;
#X obj 1512 366 sel 0;
#X obj 1505 427 change;
#X obj 1554 495 f;
#X obj 1561 455 t f f, f 7;
#X obj 1600 476 == 0;
#X obj 1561 476 sel 0;
#X obj 1554 537 change;
#X obj 1603 385 f;
#X obj 1610 345 t f f, f 7;
#X obj 1603 406 spigot;
#X obj 1649 366 == 0;
#X obj 1610 366 sel 0;
#X obj 1603 427 change;
#X obj 1651 495 f;
#X obj 1658 455 t f f, f 7;
#X obj 1697 476 == 0;
#X obj 1658 476 sel 0;
#X obj 1651 537 change;
#X obj 1700 385 f;
#X obj 1707 345 t f f, f 7;
#X obj 1700 406 spigot;
#X obj 1746 366 == 0;
#X obj 1707 366 sel 0;
#X obj 1700 427 change;
#X obj 1748 495 f;
#X obj 1755 455 t f f, f 7;
#X obj 1794 476 == 0;
#X obj 1755 476 sel 0;
#X obj 1748 537 change;
#X obj 1797 385 f;
#X obj 1804 345 t f f, f 7;
#X obj 1797 406 spigot;
#X obj 1843 366 == 0;
#X obj 1804 366 sel 0;
#X obj 1797 427 change;
#X obj 1846 495 f;
#X obj 1853 455 t f f, f 7;
#X obj 1892 476 == 0;
#X obj 1853 476 sel 0;
#X obj 1846 537 change;
#X obj 1914 328 route 0 1 2 3 4 5 6 7 8 9 10 11;
#X obj 1359 516 spigot 1;
#X obj 1456 516 spigot 1;
#X obj 1554 516 spigot 1;
#X obj 1651 516 spigot 1;
#X obj 1748 516 spigot 1;
#X obj 1846 516 spigot 1;
#X obj 1107 795 sel 0 1;
#X msg 1107 816 27 998 0;
#X msg 1126 836 27 0 127;
#X msg 1036 756 11 640 -100;
#X msg 1055 776 11 640 0;
#X connect 1 0 0 1;
#X connect 3 0 0 0;
#X connect 6 0 0 0;
#X connect 8 0 9 0;
#X connect 8 1 9 1;
#X connect 9 0 47 0;
#X connect 11 0 15 0;
#X connect 11 1 17 0;
#X connect 11 2 21 0;
#X connect 11 3 23 0;
#X connect 11 4 24 0;
#X connect 11 5 27 0;
#X connect 11 6 28 0;
#X connect 11 7 31 0;
#X connect 11 8 32 0;
#X connect 11 9 33 0;
#X connect 11 10 34 0;
#X connect 11 11 35 0;
#X connect 11 12 36 0;
#X connect 13 0 12 0;
#X connect 14 0 12 0;
#X connect 14 1 12 1;
#X connect 15 0 13 0;
#X connect 15 1 16 0;
#X connect 16 0 12 1;
#X connect 17 0 20 0;
#X connect 18 0 19 0;
#X connect 19 0 17 0;
#X connect 19 0 21 0;
#X connect 19 0 36 0;
#X connect 19 0 35 0;
#X connect 19 0 34 0;
#X connect 19 0 33 0;
#X connect 19 0 32 0;
#X connect 19 0 31 0;
#X connect 19 0 28 0;
#X connect 19 0 27 0;
#X connect 19 0 24 0;
#X connect 19 0 23 0;
#X connect 20 0 14 0;
#X connect 21 0 22 0;
#X connect 22 0 14 0;
#X connect 23 0 25 0;
#X connect 24 0 26 0;
#X connect 25 0 14 0;
#X connect 26 0 14 0;
#X connect 27 0 29 0;
#X connect 28 0 30 0;
#X connect 29 0 14 0;
#X connect 30 0 14 0;
#X connect 31 0 37 0;
#X connect 32 0 38 0;
#X connect 33 0 39 0;
#X connect 34 0 40 0;
#X connect 35 0 41 0;
#X connect 36 0 42 0;
#X connect 37 0 14 0;
#X connect 38 0 14 0;
#X connect 39 0 14 0;
#X connect 40 0 14 0;
#X connect 41 0 14 0;
#X connect 42 0 14 0;
#X connect 44 0 50 0;
#X connect 45 0 8 0;
#X connect 46 0 49 0;
#X connect 46 1 49 1;
#X connect 47 0 53 0;
#X connect 47 1 11 0;
#X connect 48 0 45 1;
#X connect 49 0 45 0;
#X connect 50 0 51 0;
#X connect 50 1 48 0;
#X connect 51 0 52 0;
#X connect 52 0 53 0;
#X connect 52 1 54 0;
#X connect 53 0 57 0;
#X connect 54 0 61 0;
#X connect 55 0 43 0;
#X connect 56 0 60 0;
#X connect 57 0 56 0;
#X connect 58 0 59 0;
#X connect 59 0 56 1;
#X connect 60 0 63 0;
#X connect 60 1 66 0;
#X connect 60 2 69 0;
#X connect 60 3 70 0;
#X connect 60 4 75 0;
#X connect 60 5 76 0;
#X connect 60 6 81 0;
#X connect 60 7 82 0;
#X connect 60 8 83 0;
#X connect 60 9 91 0;
#X connect 60 10 90 0;
#X connect 60 11 168 0;
#X connect 61 0 62 0;
#X connect 61 1 55 0;
#X connect 62 0 43 0;
#X connect 63 0 64 0;
#X connect 63 1 65 0;
#X connect 64 0 43 0;
#X connect 65 0 43 0;
#X connect 66 0 68 0;
#X connect 66 1 67 0;
#X connect 67 0 43 0;
#X connect 68 0 43 0;
#X connect 69 0 71 0;
#X connect 69 1 72 0;
#X connect 70 0 73 0;
#X connect 70 1 74 0;
#X connect 71 0 43 0;
#X connect 72 0 43 0;
#X connect 73 0 43 0;
#X connect 74 0 43 0;
#X connect 75 0 77 0;
#X connect 75 1 78 0;
#X connect 76 0 80 0;
#X connect 76 1 79 0;
#X connect 77 0 43 0;
#X connect 78 0 43 0;
#X connect 79 0 43 0;
#X connect 80 0 43 0;
#X connect 81 0 84 0;
#X connect 81 1 85 0;
#X connect 82 0 86 0;
#X connect 82 1 87 0;
#X connect 83 0 88 0;
#X connect 83 1 89 0;
#X connect 84 0 43 0;
#X connect 85 0 43 0;
#X connect 86 0 43 0;
#X connect 87 0 43 0;
#X connect 88 0 43 0;
#X connect 89 0 43 0;
#X connect 90 0 171 0;
#X connect 90 1 172 0;
#X connect 91 0 92 0;
#X connect 91 1 93 0;
#X connect 92 0 43 0;
#X connect 93 0 43 0;
#X connect 94 0 161 0;
#X connect 95 0 97 0;
#X connect 96 0 99 0;
#X connect 96 1 98 0;
#X connect 97 0 100 0;
#X connect 98 0 97 1;
#X connect 99 0 95 0;
#X connect 101 0 162 0;
#X connect 102 0 104 0;
#X connect 102 1 103 0;
#X connect 103 0 162 1;
#X connect 104 0 101 0;
#X connect 106 0 108 0;
#X connect 107 0 110 0;
#X connect 107 1 109 0;
#X connect 108 0 111 0;
#X connect 109 0 108 1;
#X connect 110 0 106 0;
#X connect 112 0 163 0;
#X connect 113 0 115 0;
#X connect 113 1 114 0;
#X connect 114 0 163 1;
#X connect 115 0 112 0;
#X connect 117 0 119 0;
#X connect 118 0 121 0;
#X connect 118 1 120 0;
#X connect 119 0 122 0;
#X connect 120 0 119 1;
#X connect 121 0 117 0;
#X connect 123 0 164 0;
#X connect 124 0 126 0;
#X connect 124 1 125 0;
#X connect 125 0 164 1;
#X connect 126 0 123 0;
#X connect 128 0 130 0;
#X connect 129 0 132 0;
#X connect 129 1 131 0;
#X connect 130 0 133 0;
#X connect 131 0 130 1;
#X connect 132 0 128 0;
#X connect 134 0 165 0;
#X connect 135 0 137 0;
#X connect 135 1 136 0;
#X connect 136 0 165 1;
#X connect 137 0 134 0;
#X connect 139 0 141 0;
#X connect 140 0 143 0;
#X connect 140 1 142 0;
#X connect 141 0 144 0;
#X connect 142 0 141 1;
#X connect 143 0 139 0;
#X connect 145 0 166 0;
#X connect 146 0 148 0;
#X connect 146 1 147 0;
#X connect 147 0 166 1;
#X connect 148 0 145 0;
#X connect 150 0 152 0;
#X connect 151 0 154 0;
#X connect 151 1 153 0;
#X connect 152 0 155 0;
#X connect 153 0 152 1;
#X connect 154 0 150 0;
#X connect 156 0 167 0;
#X connect 157 0 159 0;
#X connect 157 1 158 0;
#X connect 158 0 167 1;
#X connect 159 0 156 0;
#X connect 161 0 96 0;
#X connect 161 1 102 0;
#X connect 161 2 107 0;
#X connect 161 3 113 0;
#X connect 161 4 118 0;
#X connect 161 5 124 0;
#X connect 161 6 129 0;
#X connect 161 7 135 0;
#X connect 161 8 140 0;
#X connect 161 9 146 0;
#X connect 161 10 151 0;
#X connect 161 11 157 0;
#X connect 162 0 105 0;
#X connect 163 0 116 0;
#X connect 164 0 127 0;
#X connect 165 0 138 0;
#X connect 166 0 149 0;
#X connect 167 0 160 0;
#X connect 168 0 169 0;
#X connect 168 1 170 0;
#X connect 169 0 43 0;
#X connect 170 0 43 0;
#X connect 171 0 43 0;
#X connect 172 0 43 0;
#X restore 1055 148 pd set_pitch_quantizer;
#N canvas -8 -8 1600 817 pitch_offset 0;
#X obj 851 222 ctlout 51 1;
#X obj 851 176 * 4;
#X obj 643 100 inlet;
#X obj 643 177 spigot;
#X obj 343 419 array get mapkey;
#X obj 389 377 loadbang;
#X msg 389 398 1;
#X obj 343 377 - 48;
#X obj 334 106 r keyboard_octave;
#X obj 361 277 t f f;
#X obj 388 299 + 27;
#X obj 316 301 moses 48;
#X obj 343 337 moses 75;
#X obj 361 257 + 48;
#X obj 361 237 t f f, f 10;
#X obj 418 299 * -1;
#X obj 343 358 +, f 14;
#X obj 343 558 text set key_colours;
#X obj 382 463 text search key_colours 0;
#X obj 343 440 t f f, f 7;
#X msg 343 491 \$1 222 0;
#N canvas 0 50 450 454 new_keyboard_colours 0;
#X msg 65 84 32;
#X obj 65 105 until;
#X msg 65 126 1;
#X obj 65 147 +;
#X obj 101 147 mod 32;
#X obj 65 168 - 1;
#X obj 65 197 text get key_colours;
#X obj 65 294 s LED_num_hue_bright_(keys);
#X obj 65 58 t b;
#X obj 65 24 inlet;
#X connect 0 0 1 0;
#X connect 1 0 2 0;
#X connect 2 0 3 0;
#X connect 3 0 4 0;
#X connect 3 0 5 0;
#X connect 4 0 3 1;
#X connect 5 0 6 0;
#X connect 6 0 7 0;
#X connect 8 0 0 0;
#X connect 9 0 8 0;
#X restore 116 341 pd new_keyboard_colours;
#X obj 289 142 t b f;
#X obj 675 349 s pitch_offset;
#X obj 662 299 - 60;
#X msg 643 131 \$1;
#X obj 643 223 t f f b;
#X obj 731 271 s reset_keyboard_colours;
#X obj 772 136 t f f f;
#X obj 772 157 sel 0 1;
#X obj 776 78 inlet;
#X obj 457 54 loadbang;
#X msg 457 75 60;
#X obj 643 198 f 60;
#X obj 334 207 t b f;
#X obj 643 152 f;
#X connect 1 0 0 0;
#X connect 2 0 25 0;
#X connect 3 0 33 0;
#X connect 4 0 19 0;
#X connect 5 0 6 0;
#X connect 6 0 4 1;
#X connect 7 0 4 0;
#X connect 8 0 34 0;
#X connect 9 0 11 1;
#X connect 9 1 10 0;
#X connect 10 0 12 1;
#X connect 11 1 12 0;
#X connect 12 0 16 0;
#X connect 13 0 9 0;
#X connect 14 0 13 0;
#X connect 14 1 15 0;
#X connect 15 0 16 1;
#X connect 16 0 7 0;
#X connect 18 0 17 1;
#X connect 19 0 20 0;
#X connect 19 1 18 0;
#X connect 20 0 17 0;
#X connect 22 0 21 0;
#X connect 22 1 11 0;
#X connect 24 0 23 0;
#X connect 25 0 35 0;
#X connect 26 0 22 0;
#X connect 26 1 24 0;
#X connect 26 2 27 0;
#X connect 28 0 29 0;
#X connect 28 1 3 1;
#X connect 28 2 1 0;
#X connect 29 0 27 0;
#X connect 29 1 33 0;
#X connect 30 0 28 0;
#X connect 31 0 32 0;
#X connect 32 0 26 0;
#X connect 33 0 26 0;
#X connect 34 0 35 0;
#X connect 34 1 14 0;
#X connect 35 0 3 0;
#X restore 1131 320 pd pitch_offset;
#X f 22;
#X obj 340 200 * 8;
#X text 40 29 MIDI Setup:;
#X text 40 49 - Akai Fire as 1st device (input & output);
#X text 40 69 - Roland TR8s as second device (input & output);
#X connect 3 0 34 0;
#X connect 3 1 20 2;
#X connect 3 1 81 0;
#X connect 3 1 18 1;
#X connect 3 2 20 3;
#X connect 4 0 5 0;
#X connect 5 0 8 0;
#X connect 9 0 19 0;
#X connect 10 0 19 1;
#X connect 11 0 22 0;
#X connect 12 0 22 0;
#X connect 16 0 1 0;
#X connect 19 0 0 0;
#X connect 19 1 0 1;
#X connect 19 2 0 2;
#X connect 21 0 23 0;
#X connect 25 0 71 0;
#X connect 27 0 77 0;
#X connect 28 0 77 1;
#X connect 31 0 21 0;
#X connect 32 0 21 0;
#X connect 33 0 21 0;
#X connect 36 0 77 2;
#X connect 37 0 38 0;
#X connect 39 0 40 0;
#X connect 41 0 64 0;
#X connect 41 1 9 0;
#X connect 41 1 10 0;
#X connect 42 0 16 1;
#X connect 42 1 9 1;
#X connect 42 2 10 1;
#X connect 42 3 65 0;
#X connect 42 4 80 0;
#X connect 42 5 81 1;
#X connect 42 6 18 0;
#X connect 46 0 45 0;
#X connect 47 0 51 2;
#X connect 48 0 49 2;
#X connect 49 0 53 0;
#X connect 50 2 49 4;
#X connect 50 2 51 4;
#X connect 51 0 61 0;
#X connect 53 0 58 0;
#X connect 53 1 54 0;
#X connect 54 0 55 0;
#X connect 55 0 56 0;
#X connect 56 0 57 0;
#X connect 56 1 57 1;
#X connect 58 0 62 0;
#X connect 59 0 49 0;
#X connect 60 0 51 0;
#X connect 61 0 52 0;
#X connect 62 0 56 0;
#X connect 64 0 16 0;
#X connect 64 1 25 0;
#X connect 64 2 20 0;
#X connect 65 0 20 1;
#X connect 65 1 26 0;
#X connect 66 0 77 3;
#X connect 67 0 68 0;
#X connect 68 0 69 0;
#X connect 69 0 70 0;
#X connect 70 0 8 0;
#X connect 71 0 77 5;
#X connect 71 1 50 0;
#X connect 71 2 72 0;
#X connect 74 0 75 0;
#X connect 75 0 37 0;
#X connect 76 0 82 0;
#X connect 77 0 21 0;
#X connect 78 0 77 4;
#X connect 82 0 39 0;
