#N canvas 361 90 450 300 10;
#X obj 104 32 inlet;
#X obj 104 93 unpack f f;
#X obj 104 144 change;
#X obj 161 144 change;
#X obj 104 193 pack f f, f 10;
#X obj 161 166 t b f;
#X obj 104 234 outlet;
#X msg 37 145 set 999;
#X connect 0 0 1 0;
#X connect 1 0 2 0;
#X connect 1 1 3 0;
#X connect 2 0 4 0;
#X connect 3 0 5 0;
#X connect 4 0 6 0;
#X connect 5 0 7 0;
#X connect 5 1 4 1;
#X connect 7 0 2 0;
