#N canvas 590 176 797 464 10;
#X obj 232 50 r miditimecode_vorgezogen;
#X obj 79 24 inlet;
#X obj 160 95 f;
#X obj 79 45 sel 0;
#X obj 112 396 text set sequence;
#X text 186 95 Step;
#X obj 212 194 text get sequence;
#X obj 145 156 t f f;
#X text 138 201 Pitch;
#X obj 50 347 list append, f 13;
#X obj 50 316 list append;
#X obj 212 215 list split 5, f 40;
#X obj 246 278 list append;
#X obj 125 186 float \$1;
#X obj 330 235 route -1;
#X msg 50 123 1 -1;
#X obj 212 245 list split 2;
#X obj 160 66 t b;
#X obj 145 124 f;
#X obj 79 66 t b b b;
#X connect 0 0 2 1;
#X connect 1 0 3 0;
#X connect 2 0 18 1;
#X connect 3 0 19 0;
#X connect 3 1 17 0;
#X connect 6 0 11 0;
#X connect 7 0 4 1;
#X connect 7 1 6 0;
#X connect 9 0 4 0;
#X connect 10 0 9 0;
#X connect 11 0 16 0;
#X connect 11 1 14 0;
#X connect 12 0 10 1;
#X connect 13 0 9 1;
#X connect 14 0 12 1;
#X connect 14 1 12 1;
#X connect 15 0 10 0;
#X connect 16 1 12 0;
#X connect 17 0 2 0;
#X connect 18 0 7 0;
#X connect 19 0 15 0;
#X connect 19 1 13 0;
#X connect 19 2 18 0;
