#N canvas 0 50 450 300 10;
#X obj 105 68 sel 0, f 15;
#X obj 213 130 v midi_chanel;
#X obj 105 38 inlet;
#X obj 105 245 outlet;
#X obj 105 192 pack f f, f 23;
#X msg 105 213 \$2 \$1;
#X obj 105 153 f;
#X obj 213 108 t b f;
#X obj 105 89 t b b;
#X msg 132 114 0;
#X connect 0 0 8 0;
#X connect 0 1 7 0;
#X connect 1 0 6 0;
#X connect 2 0 0 0;
#X connect 4 0 5 0;
#X connect 5 0 3 0;
#X connect 6 0 4 0;
#X connect 7 0 1 0;
#X connect 7 1 4 1;
#X connect 8 0 6 0;
#X connect 8 1 9 0;
#X connect 9 0 4 1;
