#N canvas -8 -8 1600 817 10;
#X obj 22 5 inlet;
#X floatatom 478 39 5 0 0 0 - - -;
#X obj 757 39 t f f f, f 13;
#X obj 796 80 +;
#X obj 796 99 == 2;
#X obj 757 120 spigot;
#X obj 757 18 notein 1;
#X obj 757 141 pack f f;
#X obj 796 60 >= 44;
#X obj 834 60 <= 49;
#X obj 133 132 text get sequence;
#X obj 22 58 sel 0, f 19;
#X text 673 501 ist step active oder nicht;
#X text 673 521 * wenn step inactive \, dann lade default werte;
#X text 673 621 * wenn step inactive gesetzt wird \, lade default werte
;
#X text 673 541 wenn step active lade \, gespeicherte werte;
#X text 673 561 wenn step losgelassen wird \, ohne dass werte gesetzt
wurden ändere step status (active/inactive);
#X text 673 591 wenn step losgelassen wurde und werte gesetzt wurden
dann set status zu active und nehme gesetzte werte/default werte;
#X obj 133 197 unpack f f f f f;
#X obj 133 153 list split 5;
#X floatatom 133 218 5 0 0 0 - - -;
#X floatatom 173 218 5 0 0 0 - - -;
#X floatatom 213 218 5 0 0 0 - - -;
#X floatatom 253 218 5 0 0 0 - - -;
#X floatatom 293 218 5 0 0 0 - - -;
#X floatatom 172 174 5 0 0 0 - - -;
#X obj 438 39 t f b;
#X obj 598 39 t f b;
#X obj 757 162 t l b;
#X obj 958 265 tgl 15 0 empty empty empty 17 7 0 10 -262144 -1 -1 0
1;
#X obj 757 202 route 44 45 46 47 48, f 34;
#X msg 958 223 \$2;
#X obj 958 244 sel 127;
#X obj 784 181 s edited_\$0;
#X obj 625 58 s edited_\$0;
#X obj 465 58 s edited_\$0;
#X obj 133 245 value \$0_status;
#X obj 59 298 r edited_\$0;
#X obj 237 554 s edited_\$0;
#X obj 41 347 tgl 15 0 empty empty empty 17 7 0 10 -262144 -1 -1 1
1;
#X msg 59 319 set 0;
#X text 59 346 new status;
#X obj 757 287 f;
#X obj 203 305 s \$0_condition;
#X obj 781 287 r \$0_condition;
#X obj 226 325 s \$0_flam;
#X obj 1010 223 r \$0_flam;
#X text 815 311 new trigger condition;
#X text 976 265 new flam;
#X obj 68 451 pack f f f f f, f 158;
#X obj 438 94 t f f, f 8;
#X obj 438 113 > 63;
#X obj 438 133 pack f f;
#X obj 438 154 route 0 1;
#X obj 463 179 - 128;
#X obj 438 221 +;
#X obj 156 265 s \$0_length;
#X obj 179 285 s \$0_velocity;
#X obj 464 221 r \$0_length;
#X obj 598 94 t f f, f 8;
#X obj 598 113 > 63;
#X obj 598 133 pack f f;
#X obj 598 154 route 0 1;
#X obj 623 179 - 128;
#X obj 598 221 +;
#X obj 438 242 clip -1 127;
#X obj 598 242 clip -1 127;
#X obj 133 86 t b;
#X obj 624 221 r \$0_velocity;
#X obj 68 518 list append;
#X obj 22 80 t b b;
#X obj 208 174 s \$0_pitches;
#X obj 131 489 r \$0_pitches;
#X obj 133 107 float \$1;
#X obj 41 658 text set sequence;
#X obj 41 539 t l b;
#X obj 68 583 float \$1;
#X obj 41 367 sel 0;
#X msg 757 223 11;
#X msg 797 223 22;
#X msg 837 223 33;
#X msg 877 223 44;
#X msg 917 223 55;
#X msg 41 392 0 -1 -1 11 0 -1;
#X obj 384 678 pack f f f f, f 34;
#X obj 603 678 r \$0_pitches;
#X obj 384 706 list append, f 37;
#X obj 384 727 t b l, f 11;
#X obj 384 748 float \$1;
#X obj 384 769 list;
#X obj 384 790 outlet;
#X obj 424 638 t b f;
#X obj 491 638 t b f;
#X obj 558 638 t b f;
#X obj 424 616 change;
#X obj 491 616 change;
#X obj 558 616 change;
#X obj 210 489 r last_pressed_notes;
#X obj 210 510 t l b;
#X obj 22 26 t f f;
#X obj 237 530 spigot;
#X obj 438 18 ctlin 17 1;
#X obj 598 18 ctlin 19 1;
#X connect 0 0 99 0;
#X connect 2 0 5 0;
#X connect 2 1 8 0;
#X connect 2 2 9 0;
#X connect 3 0 4 0;
#X connect 4 0 5 1;
#X connect 5 0 7 0;
#X connect 6 0 2 0;
#X connect 6 1 7 1;
#X connect 7 0 28 0;
#X connect 8 0 3 0;
#X connect 9 0 3 1;
#X connect 10 0 19 0;
#X connect 11 0 70 0;
#X connect 11 1 67 0;
#X connect 18 0 20 0;
#X connect 18 0 36 0;
#X connect 18 1 21 0;
#X connect 18 1 56 0;
#X connect 18 2 22 0;
#X connect 18 2 57 0;
#X connect 18 3 23 0;
#X connect 18 3 43 0;
#X connect 18 4 24 0;
#X connect 18 4 45 0;
#X connect 19 0 18 0;
#X connect 19 1 25 0;
#X connect 19 1 71 0;
#X connect 26 0 50 0;
#X connect 26 1 35 0;
#X connect 27 0 59 0;
#X connect 27 1 34 0;
#X connect 28 0 30 0;
#X connect 28 1 33 0;
#X connect 29 0 49 4;
#X connect 29 0 96 0;
#X connect 30 0 78 0;
#X connect 30 1 79 0;
#X connect 30 2 80 0;
#X connect 30 3 81 0;
#X connect 30 4 82 0;
#X connect 30 5 31 0;
#X connect 31 0 32 0;
#X connect 32 0 29 0;
#X connect 37 0 40 0;
#X connect 39 0 77 0;
#X connect 40 0 39 0;
#X connect 42 0 49 3;
#X connect 42 0 95 0;
#X connect 44 0 42 0;
#X connect 46 0 29 0;
#X connect 49 0 69 0;
#X connect 50 0 51 0;
#X connect 50 1 52 1;
#X connect 51 0 52 0;
#X connect 52 0 53 0;
#X connect 53 0 55 0;
#X connect 53 1 54 0;
#X connect 54 0 55 0;
#X connect 55 0 65 0;
#X connect 58 0 65 0;
#X connect 59 0 60 0;
#X connect 59 1 61 1;
#X connect 60 0 61 0;
#X connect 61 0 62 0;
#X connect 62 0 64 0;
#X connect 62 1 63 0;
#X connect 63 0 64 0;
#X connect 64 0 66 0;
#X connect 65 0 55 1;
#X connect 65 0 49 1;
#X connect 65 0 84 0;
#X connect 66 0 64 1;
#X connect 66 0 49 2;
#X connect 66 0 94 0;
#X connect 67 0 73 0;
#X connect 68 0 66 0;
#X connect 69 0 75 0;
#X connect 70 0 39 0;
#X connect 72 0 69 1;
#X connect 73 0 10 0;
#X connect 75 0 74 0;
#X connect 75 1 76 0;
#X connect 76 0 74 1;
#X connect 77 0 83 0;
#X connect 77 1 49 0;
#X connect 78 0 42 0;
#X connect 79 0 42 0;
#X connect 80 0 42 0;
#X connect 81 0 42 0;
#X connect 82 0 42 0;
#X connect 83 0 75 0;
#X connect 84 0 86 0;
#X connect 85 0 86 1;
#X connect 86 0 87 0;
#X connect 87 0 88 0;
#X connect 87 1 89 1;
#X connect 88 0 89 0;
#X connect 89 0 90 0;
#X connect 91 0 84 0;
#X connect 91 1 84 1;
#X connect 92 0 84 0;
#X connect 92 1 84 2;
#X connect 93 0 84 0;
#X connect 93 1 84 3;
#X connect 94 0 91 0;
#X connect 95 0 92 0;
#X connect 96 0 93 0;
#X connect 97 0 98 0;
#X connect 98 0 69 1;
#X connect 98 1 100 0;
#X connect 99 0 11 0;
#X connect 99 1 100 1;
#X connect 100 0 38 0;
#X connect 101 0 26 0;
#X connect 101 0 1 0;
#X connect 102 0 27 0;
